<?xml version="1.0" encoding="UTF-8" standalone="no"?>
<!-- Created with Inkscape (http://www.inkscape.org/) -->

<svg
   xmlns:dc="http://purl.org/dc/elements/1.1/"
   xmlns:cc="http://creativecommons.org/ns#"
   xmlns:rdf="http://www.w3.org/1999/02/22-rdf-syntax-ns#"
   xmlns:svg="http://www.w3.org/2000/svg"
   xmlns="http://www.w3.org/2000/svg"
   xmlns:xlink="http://www.w3.org/1999/xlink"
   xmlns:sodipodi="http://sodipodi.sourceforge.net/DTD/sodipodi-0.dtd"
   xmlns:inkscape="http://www.inkscape.org/namespaces/inkscape"
   sodipodi:docname="icon.svg"
   width="100"
   height="100"
   id="svg2"
   version="1.1"
   inkscape:version="0.92.3 (2405546, 2018-03-11)"
   inkscape:export-filename="/srv/backup/nouser/Projects/asocial.co/frontend/icon.png"
   inkscape:export-xdpi="360.79999"
   inkscape:export-ydpi="360.79999">
  <sodipodi:namedview
     id="base"
     pagecolor="#ffffff"
     bordercolor="#666666"
     borderopacity="1.0"
     inkscape:pageopacity="0.0"
     inkscape:pageshadow="2"
     inkscape:zoom="4"
     inkscape:cx="50.782838"
     inkscape:cy="57.604917"
     inkscape:document-units="px"
     inkscape:current-layer="layer4"
     showgrid="false"
     showborder="true"
     inkscape:showpageshadow="true"
     inkscape:window-width="958"
     inkscape:window-height="1057"
     inkscape:window-x="961"
     inkscape:window-y="22"
     inkscape:window-maximized="1"
     inkscape:snap-midpoints="false"
     inkscape:snap-smooth-nodes="false"
     inkscape:object-nodes="false"
     inkscape:object-paths="true"
     inkscape:snap-intersection-paths="false"
     inkscape:snap-object-midpoints="true"
     inkscape:snap-center="true" />
  <defs
     id="defs4">
    <linearGradient
       gradientUnits="userSpaceOnUse"
       y2="79.612007"
       x2="66.990211"
       y1="32.319778"
       x1="19.697975"
       id="linearGradient58071-9"
       xlink:href="#linearGradient58065-7"
       inkscape:collect="always" />
    <linearGradient
       inkscape:collect="always"
       xlink:href="#linearGradient58065-7-1"
       id="linearGradient58088-8"
       gradientUnits="userSpaceOnUse"
       x1="19.697975"
       y1="32.319778"
       x2="66.990211"
       y2="79.612007"
       gradientTransform="translate(12.748045,-12.768207)" />
    <linearGradient
       gradientUnits="userSpaceOnUse"
       y2="79.612007"
       x2="66.990211"
       y1="32.319778"
       x1="19.697975"
       id="linearGradient58071-1"
       xlink:href="#linearGradient58065-8"
       inkscape:collect="always" />
    <linearGradient
       inkscape:collect="always"
       xlink:href="#linearGradient58065-8-0"
       id="linearGradient58156-2"
       gradientUnits="userSpaceOnUse"
       x1="19.697975"
       y1="32.319778"
       x2="66.990211"
       y2="79.612007"
       gradientTransform="translate(-4.6515123,17.492648)" />
    <linearGradient
       inkscape:collect="always"
       xlink:href="#linearGradient58065-8-4"
       id="linearGradient58156-1"
       gradientUnits="userSpaceOnUse"
       x1="19.697975"
       y1="32.319778"
       x2="66.990211"
       y2="79.612007"
       gradientTransform="translate(-4.6515123,17.492648)" />
    <linearGradient
       inkscape:collect="always"
       xlink:href="#linearGradient58065-8-6"
       id="linearGradient58156-7"
       gradientUnits="userSpaceOnUse"
       x1="19.697975"
       y1="32.319778"
       x2="66.990211"
       y2="79.612007"
       gradientTransform="translate(-4.6515123,17.492648)" />
    <linearGradient
       inkscape:collect="always"
       xlink:href="#linearGradient58065-8-9"
       id="linearGradient58190-98"
       gradientUnits="userSpaceOnUse"
       gradientTransform="translate(29.274957,51.399175)"
       x1="19.697975"
       y1="32.319778"
       x2="66.990211"
       y2="79.612007" />
    <linearGradient
       inkscape:collect="always"
       xlink:href="#linearGradient58065-8-7"
       id="linearGradient58156-10"
       gradientUnits="userSpaceOnUse"
       x1="19.697975"
       y1="32.319778"
       x2="66.990211"
       y2="79.612007"
       gradientTransform="translate(-4.6515123,17.492648)" />
    <linearGradient
       inkscape:collect="always"
       xlink:href="#linearGradient58065-8-2"
       id="linearGradient58156-76"
       gradientUnits="userSpaceOnUse"
       x1="19.697975"
       y1="32.319778"
       x2="66.990211"
       y2="79.612007"
       gradientTransform="translate(-4.6515123,17.492648)" />
    <linearGradient
       inkscape:collect="always"
       xlink:href="#linearGradient58065-8-9"
       id="linearGradient58190-4"
       gradientUnits="userSpaceOnUse"
       gradientTransform="translate(46.756793,46.727111)"
       x1="19.697975"
       y1="32.319778"
       x2="66.990211"
       y2="79.612007" />
    <linearGradient
       inkscape:collect="always"
       xlink:href="#linearGradient58065-8-3"
       id="linearGradient58156-5"
       gradientUnits="userSpaceOnUse"
       x1="19.697975"
       y1="32.319778"
       x2="66.990211"
       y2="79.612007"
       gradientTransform="translate(-4.6515123,17.492648)" />
    <linearGradient
       inkscape:collect="always"
       xlink:href="#linearGradient58065-8-9"
       id="linearGradient58190-7"
       gradientUnits="userSpaceOnUse"
       gradientTransform="translate(59.53902,33.945908)"
       x1="19.697975"
       y1="32.319778"
       x2="66.990211"
       y2="79.612007" />
    <linearGradient
       inkscape:collect="always"
       xlink:href="#linearGradient58065-8-43"
       id="linearGradient58156-0"
       gradientUnits="userSpaceOnUse"
       x1="19.697975"
       y1="32.319778"
       x2="66.990211"
       y2="79.612007"
       gradientTransform="translate(-4.6515123,17.492648)" />
    <linearGradient
       inkscape:collect="always"
       xlink:href="#linearGradient58065-8-5"
       id="linearGradient58156-8"
       gradientUnits="userSpaceOnUse"
       x1="19.697975"
       y1="32.319778"
       x2="66.990211"
       y2="79.612007"
       gradientTransform="translate(-4.6515123,17.492648)" />
    <linearGradient
       inkscape:collect="always"
       xlink:href="#linearGradient58065-8-9"
       id="linearGradient58156-4"
       gradientUnits="userSpaceOnUse"
       x1="19.697975"
       y1="32.319778"
       x2="66.990211"
       y2="79.612007"
       gradientTransform="translate(-4.6515123,17.492648)" />
    <linearGradient
       id="linearGradient58065-8-9"
       inkscape:collect="always">
      <stop
         id="stop58067-3-69"
         offset="0"
         style="stop-color:#000000;stop-opacity:1;" />
      <stop
         id="stop58069-0-01"
         offset="1"
         style="stop-color:#000000;stop-opacity:0;" />
    </linearGradient>
    <linearGradient
       inkscape:collect="always"
       xlink:href="#linearGradient58065-8-9"
       id="linearGradient58190-47"
       gradientUnits="userSpaceOnUse"
       gradientTransform="translate(64.196295,16.472991)"
       x1="19.697975"
       y1="32.319778"
       x2="66.990211"
       y2="79.612007" />
    <linearGradient
       y2="79.612007"
       x2="66.990211"
       y1="32.319778"
       x1="19.697975"
       gradientTransform="translate(59.526245,-0.97472755)"
       gradientUnits="userSpaceOnUse"
       id="linearGradient4488"
       xlink:href="#linearGradient58065-8-9"
       inkscape:collect="always" />
    <linearGradient
       y2="79.612007"
       x2="66.990211"
       y1="32.319778"
       x1="19.697975"
       gradientTransform="translate(29.277919,16.479619)"
       gradientUnits="userSpaceOnUse"
       id="linearGradient4502"
       xlink:href="#linearGradient58065-8-9"
       inkscape:collect="always" />
    <linearGradient
       y2="79.612007"
       x2="66.990211"
       y1="32.319778"
       x1="19.697975"
       gradientTransform="translate(30.270329,-17.503166)"
       gradientUnits="userSpaceOnUse"
       id="linearGradient4515"
       xlink:href="#linearGradient58065-8-9"
       inkscape:collect="always" />
    <linearGradient
       y2="79.612007"
       x2="66.990211"
       y1="32.319778"
       x1="19.697975"
       gradientTransform="translate(-4.6515123,17.492648)"
       gradientUnits="userSpaceOnUse"
       id="linearGradient4536"
       xlink:href="#linearGradient58065-8-9"
       inkscape:collect="always" />
    <linearGradient
       y2="79.612007"
       x2="66.990211"
       y1="32.319778"
       x1="19.697975"
       gradientTransform="translate(11.836109,46.728454)"
       gradientUnits="userSpaceOnUse"
       id="linearGradient4539"
       xlink:href="#linearGradient58065-8-9"
       inkscape:collect="always" />
    <linearGradient
       y2="79.612007"
       x2="66.990211"
       y1="32.319778"
       x1="19.697975"
       gradientTransform="translate(46.750508,-13.75576)"
       gradientUnits="userSpaceOnUse"
       id="linearGradient4648"
       xlink:href="#linearGradient58065-8-9"
       inkscape:collect="always" />
    <linearGradient
       y2="79.612007"
       x2="66.990211"
       y1="32.382965"
       x1="19.761169"
       gradientUnits="userSpaceOnUse"
       id="linearGradient4653"
       xlink:href="#linearGradient58065-8-9"
       inkscape:collect="always" />
    <linearGradient
       y2="79.612007"
       x2="66.990211"
       y1="32.319778"
       x1="19.697975"
       gradientTransform="translate(12.748045,-12.768207)"
       gradientUnits="userSpaceOnUse"
       id="linearGradient4658"
       xlink:href="#linearGradient58065-8-9"
       inkscape:collect="always" />
    <linearGradient
       y2="79.612007"
       x2="66.990211"
       y1="32.319778"
       x1="19.697975"
       gradientTransform="translate(-0.93777131,33.900504)"
       gradientUnits="userSpaceOnUse"
       id="linearGradient4663"
       xlink:href="#linearGradient58065-8-9"
       inkscape:collect="always" />
    <clipPath
       id="clipPath4667"
       clipPathUnits="userSpaceOnUse">
      <path
         sodipodi:type="arc"
         style="fill:#00c100;fill-opacity:1;fill-rule:nonzero;stroke:none;display:inline"
         id="path4669"
         sodipodi:cx="48.92857"
         sodipodi:cy="50"
         sodipodi:rx="46.42857"
         sodipodi:ry="46.785713"
         d="M 95.35714,50 A 46.42857,46.785713 0 1 1 2.5,50 46.42857,46.785713 0 1 1 95.35714,50 z"
         transform="matrix(1.023077,0,0,1.0152672,-0.0576925,-0.76336004)" />
    </clipPath>
    <clipPath
       id="clipPath4671"
       clipPathUnits="userSpaceOnUse">
      <path
         sodipodi:type="arc"
         style="fill:#00c100;fill-opacity:1;fill-rule:nonzero;stroke:none;display:inline"
         id="path4673"
         sodipodi:cx="48.92857"
         sodipodi:cy="50"
         sodipodi:rx="46.42857"
         sodipodi:ry="46.785713"
         d="M 95.35714,50 A 46.42857,46.785713 0 1 1 2.5,50 46.42857,46.785713 0 1 1 95.35714,50 z"
         transform="matrix(1.023077,0,0,1.0152672,-0.0576925,-0.76336004)" />
    </clipPath>
    <clipPath
       id="clipPath4675"
       clipPathUnits="userSpaceOnUse">
      <path
         sodipodi:type="arc"
         style="fill:#00c100;fill-opacity:1;fill-rule:nonzero;stroke:none;display:inline"
         id="path4677"
         sodipodi:cx="48.92857"
         sodipodi:cy="50"
         sodipodi:rx="46.42857"
         sodipodi:ry="46.785713"
         d="M 95.35714,50 A 46.42857,46.785713 0 1 1 2.5,50 46.42857,46.785713 0 1 1 95.35714,50 z"
         transform="matrix(1.023077,0,0,1.0152672,-0.0576925,-0.76336004)" />
    </clipPath>
    <clipPath
       id="clipPath4679"
       clipPathUnits="userSpaceOnUse">
      <path
         sodipodi:type="arc"
         style="fill:#00c100;fill-opacity:1;fill-rule:nonzero;stroke:none;display:inline"
         id="path4681"
         sodipodi:cx="48.92857"
         sodipodi:cy="50"
         sodipodi:rx="46.42857"
         sodipodi:ry="46.785713"
         d="M 95.35714,50 A 46.42857,46.785713 0 1 1 2.5,50 46.42857,46.785713 0 1 1 95.35714,50 z"
         transform="matrix(1.023077,0,0,1.0152672,-0.0576925,-0.76336004)" />
    </clipPath>
    <clipPath
       id="clipPath4683"
       clipPathUnits="userSpaceOnUse">
      <path
         sodipodi:type="arc"
         style="fill:#00c100;fill-opacity:1;fill-rule:nonzero;stroke:none;display:inline"
         id="path4685"
         sodipodi:cx="48.92857"
         sodipodi:cy="50"
         sodipodi:rx="46.42857"
         sodipodi:ry="46.785713"
         d="M 95.35714,50 A 46.42857,46.785713 0 1 1 2.5,50 46.42857,46.785713 0 1 1 95.35714,50 z"
         transform="matrix(1.023077,0,0,1.0152672,-0.0576925,-0.76336004)" />
    </clipPath>
    <clipPath
       id="clipPath4687"
       clipPathUnits="userSpaceOnUse">
      <path
         sodipodi:type="arc"
         style="fill:#00c100;fill-opacity:1;fill-rule:nonzero;stroke:none;display:inline"
         id="path4689"
         sodipodi:cx="48.92857"
         sodipodi:cy="50"
         sodipodi:rx="46.42857"
         sodipodi:ry="46.785713"
         d="M 95.35714,50 A 46.42857,46.785713 0 1 1 2.5,50 46.42857,46.785713 0 1 1 95.35714,50 z"
         transform="matrix(1.023077,0,0,1.0152672,-0.0576925,-0.76336004)" />
    </clipPath>
    <clipPath
       id="clipPath4691"
       clipPathUnits="userSpaceOnUse">
      <path
         sodipodi:type="arc"
         style="fill:#00c100;fill-opacity:1;fill-rule:nonzero;stroke:none;display:inline"
         id="path4693"
         sodipodi:cx="48.92857"
         sodipodi:cy="50"
         sodipodi:rx="46.42857"
         sodipodi:ry="46.785713"
         d="M 95.35714,50 A 46.42857,46.785713 0 1 1 2.5,50 46.42857,46.785713 0 1 1 95.35714,50 z"
         transform="matrix(1.023077,0,0,1.0152672,-0.0576925,-0.76336004)" />
    </clipPath>
    <clipPath
       id="clipPath4695"
       clipPathUnits="userSpaceOnUse">
      <path
         sodipodi:type="arc"
         style="fill:#00c100;fill-opacity:1;fill-rule:nonzero;stroke:none;display:inline"
         id="path4697"
         sodipodi:cx="48.92857"
         sodipodi:cy="50"
         sodipodi:rx="46.42857"
         sodipodi:ry="46.785713"
         d="M 95.35714,50 A 46.42857,46.785713 0 1 1 2.5,50 46.42857,46.785713 0 1 1 95.35714,50 z"
         transform="matrix(1.023077,0,0,1.0152672,-0.0576925,-0.76336004)" />
    </clipPath>
    <clipPath
       id="clipPath4699"
       clipPathUnits="userSpaceOnUse">
      <path
         sodipodi:type="arc"
         style="fill:#00c100;fill-opacity:1;fill-rule:nonzero;stroke:none;display:inline"
         id="path4701"
         sodipodi:cx="48.92857"
         sodipodi:cy="50"
         sodipodi:rx="46.42857"
         sodipodi:ry="46.785713"
         d="M 95.35714,50 A 46.42857,46.785713 0 1 1 2.5,50 46.42857,46.785713 0 1 1 95.35714,50 z"
         transform="matrix(1.023077,0,0,1.0152672,-0.0576925,-0.76336004)" />
    </clipPath>
    <clipPath
       id="clipPath4703"
       clipPathUnits="userSpaceOnUse">
      <path
         sodipodi:type="arc"
         style="fill:#00c100;fill-opacity:1;fill-rule:nonzero;stroke:none;display:inline"
         id="path4705"
         sodipodi:cx="48.92857"
         sodipodi:cy="50"
         sodipodi:rx="46.42857"
         sodipodi:ry="46.785713"
         d="M 95.35714,50 A 46.42857,46.785713 0 1 1 2.5,50 46.42857,46.785713 0 1 1 95.35714,50 z"
         transform="matrix(1.023077,0,0,1.0152672,-0.0576925,-0.76336004)" />
    </clipPath>
    <clipPath
       id="clipPath4707"
       clipPathUnits="userSpaceOnUse">
      <path
         sodipodi:type="arc"
         style="fill:#00c100;fill-opacity:1;fill-rule:nonzero;stroke:none;display:inline"
         id="path4709"
         sodipodi:cx="48.92857"
         sodipodi:cy="50"
         sodipodi:rx="46.42857"
         sodipodi:ry="46.785713"
         d="M 95.35714,50 A 46.42857,46.785713 0 1 1 2.5,50 46.42857,46.785713 0 1 1 95.35714,50 z"
         transform="matrix(1.023077,0,0,1.0152672,-0.0576925,-0.76336004)" />
    </clipPath>
    <clipPath
       id="clipPath4711"
       clipPathUnits="userSpaceOnUse">
      <path
         sodipodi:type="arc"
         style="fill:#00c100;fill-opacity:1;fill-rule:nonzero;stroke:none;display:inline"
         id="path4713"
         sodipodi:cx="48.92857"
         sodipodi:cy="50"
         sodipodi:rx="46.42857"
         sodipodi:ry="46.785713"
         d="M 95.35714,50 A 46.42857,46.785713 0 1 1 2.5,50 46.42857,46.785713 0 1 1 95.35714,50 z"
         transform="matrix(1.023077,0,0,1.0152672,-0.0576925,-0.76336004)" />
    </clipPath>
    <clipPath
       id="clipPath4715"
       clipPathUnits="userSpaceOnUse">
      <path
         sodipodi:type="arc"
         style="fill:#00c100;fill-opacity:1;fill-rule:nonzero;stroke:none;display:inline"
         id="path4717"
         sodipodi:cx="48.92857"
         sodipodi:cy="50"
         sodipodi:rx="46.42857"
         sodipodi:ry="46.785713"
         d="M 95.35714,50 A 46.42857,46.785713 0 1 1 2.5,50 46.42857,46.785713 0 1 1 95.35714,50 z"
         transform="matrix(1.023077,0,0,1.0152672,-0.0576925,-0.76336004)" />
    </clipPath>
    <filter
       id="filter24554"
       inkscape:collect="always">
      <feGaussianBlur
         id="feGaussianBlur24556"
         stdDeviation="0.78980853"
         inkscape:collect="always" />
    </filter>
    <filter
       id="filter24558"
       inkscape:collect="always">
      <feGaussianBlur
         id="feGaussianBlur24560"
         stdDeviation="0.78980853"
         inkscape:collect="always" />
    </filter>
    <filter
       id="filter24562"
       inkscape:collect="always">
      <feGaussianBlur
         id="feGaussianBlur24564"
         stdDeviation="0.78980853"
         inkscape:collect="always" />
    </filter>
    <filter
       id="filter24566"
       inkscape:collect="always">
      <feGaussianBlur
         id="feGaussianBlur24568"
         stdDeviation="0.78980853"
         inkscape:collect="always" />
    </filter>
    <filter
       id="filter24570"
       inkscape:collect="always">
      <feGaussianBlur
         id="feGaussianBlur24572"
         stdDeviation="0.78980853"
         inkscape:collect="always" />
    </filter>
    <filter
       id="filter24574"
       inkscape:collect="always">
      <feGaussianBlur
         id="feGaussianBlur24576"
         stdDeviation="0.78980853"
         inkscape:collect="always" />
    </filter>
    <filter
       id="filter24578"
       inkscape:collect="always">
      <feGaussianBlur
         id="feGaussianBlur24580"
         stdDeviation="0.78980853"
         inkscape:collect="always" />
    </filter>
    <filter
       id="filter24582"
       inkscape:collect="always">
      <feGaussianBlur
         id="feGaussianBlur24584"
         stdDeviation="0.78980853"
         inkscape:collect="always" />
    </filter>
    <filter
       id="filter24586"
       inkscape:collect="always">
      <feGaussianBlur
         id="feGaussianBlur24588"
         stdDeviation="0.78980853"
         inkscape:collect="always" />
    </filter>
    <clipPath
       clipPathUnits="userSpaceOnUse"
       id="clipPath89472">
      <path
         sodipodi:type="arc"
         style="fill:#00c100;fill-opacity:1;fill-rule:nonzero;stroke:none;display:inline"
         id="path89474"
         sodipodi:cx="48.92857"
         sodipodi:cy="50"
         sodipodi:rx="46.42857"
         sodipodi:ry="46.785713"
         d="M 95.35714,50 A 46.42857,46.785713 0 1 1 2.5,50 46.42857,46.785713 0 1 1 95.35714,50 z"
         transform="matrix(1.023077,0,0,1.0152672,-0.0576925,-0.76336004)" />
    </clipPath>
  </defs>
  <metadata
     id="metadata7">
    <rdf:RDF>
      <cc:Work
         rdf:about="">
        <dc:format>image/svg+xml</dc:format>
        <dc:type
           rdf:resource="http://purl.org/dc/dcmitype/StillImage" />
        <dc:title></dc:title>
      </cc:Work>
    </rdf:RDF>
  </metadata>
  <g
     style="display:inline"
     inkscape:label="Background"
     id="layer2"
     inkscape:groupmode="layer">
    <path
       sodipodi:type="arc"
       style="opacity:0.2;fill:#000000;fill-opacity:1;fill-rule:nonzero;stroke:none"
       id="path4719"
       sodipodi:cx="48.92857"
       sodipodi:cy="50"
       sodipodi:rx="46.42857"
       sodipodi:ry="46.785713"
       d="M 95.35714,50 A 46.42857,46.785713 0 1 1 2.5,50 46.42857,46.785713 0 1 1 95.35714,50 z"
       transform="matrix(1.023077,0,0,1.0152672,0.729611,0.023944)" />
    <path
       transform="matrix(1.023077,0,0,1.0152672,-0.0576925,-0.76336004)"
       d="M 95.35714,50 A 46.42857,46.785713 0 1 1 2.5,50 46.42857,46.785713 0 1 1 95.35714,50 z"
       sodipodi:ry="46.785713"
       sodipodi:rx="46.42857"
       sodipodi:cy="50"
       sodipodi:cx="48.92857"
       id="path3756"
       style="fill:#00c100;fill-opacity:1;fill-rule:nonzero;stroke:none"
       sodipodi:type="arc" />
  </g>
  <g
     style="opacity:0.2"
     inkscape:label="Items Shadow"
     id="layer4"
     inkscape:groupmode="layer">
    <path
       style="fill:#000000;fill-opacity:1;stroke:none"
       d="m 51,6.5 c -2.761423,0 -5,2.23858 -5,5 0,1.65344 0.794427,3.121022 2.03125,4.03125 49.308216,49.308216 84.26061,84.323461 125.6228,125.68565 0.11827,0.13038 0.24371,0.25772 0.375,0.375 0.10944,0.11854 0.22341,0.23625 0.34375,0.34375 0.0908,0.0984 0.1829,0.19045 0.28125,0.28125 0.13253,0.14836 0.28834,0.27461 0.4375,0.40625 0.0858,0.0912 0.15766,0.19672 0.25,0.28125 0.0791,0.0864 0.16511,0.16936 0.25,0.25 0.12263,0.14004 0.26889,0.24943 0.40625,0.375 0.10138,0.11089 0.20161,0.21112 0.3125,0.3125 0.11566,0.12652 0.21577,0.26093 0.34375,0.375 0.0603,0.0636 0.12391,0.12711 0.1875,0.1875 0.13651,0.15316 0.28331,0.30213 0.4375,0.4375 0.0206,0.0213 0.0416,0.0416 0.0625,0.0625 0.0281,0.0238 0.0651,0.0393 0.0937,0.0625 0.11345,0.12855 0.2178,0.25872 0.34375,0.375 0.0908,0.0984 0.1829,0.19045 0.28125,0.28125 0.0808,0.0876 0.16316,0.1684 0.25,0.25 0.11421,0.12566 0.24867,0.23027 0.375,0.34375 0.0513,0.0536 0.10259,0.10494 0.15625,0.15625 0.0949,0.10567 0.17775,0.21525 0.28125,0.3125 0.10632,0.11516 0.22714,0.20775 0.34375,0.3125 0.0718,0.075 0.14242,0.1483 0.21875,0.21875 0.0553,0.0588 0.0982,0.13142 0.15625,0.1875 0.0899,0.0992 0.18371,0.1896 0.28125,0.28125 0.10076,0.10914 0.20248,0.21269 0.3125,0.3125 0.0303,0.0314 0.0626,0.0632 0.0937,0.0937 0.0977,0.10939 0.20563,0.21209 0.3125,0.3125 0.0715,0.0761 0.14261,0.14721 0.21875,0.21875 0.0715,0.0761 0.14261,0.14721 0.21875,0.21875 0.0916,0.0975 0.1821,0.19131 0.28125,0.28125 0.0205,0.0208 0.0417,0.042 0.0625,0.0625 0.10858,0.1197 0.22416,0.23506 0.34375,0.34375 0.0205,0.0208 0.0417,0.042 0.0625,0.0625 0.0844,0.0931 0.15885,0.19477 0.25,0.28125 0.0606,0.0639 0.1236,0.12687 0.1875,0.1875 0.0764,0.0805 0.16846,0.14347 0.25,0.21875 0.0407,0.0414 0.0829,0.085 0.125,0.125 0.0298,0.0314 0.0632,0.0632 0.0937,0.0937 0.0791,0.087 0.16503,0.16876 0.25,0.25 0.0519,0.0543 0.10196,0.10434 0.15625,0.15625 0.0559,0.0584 0.0976,0.13184 0.15625,0.1875 0.0204,0.0211 0.0417,0.0417 0.0625,0.0625 0.0271,0.0249 0.0661,0.0382 0.0937,0.0625 0.0462,0.0484 0.0769,0.10977 0.125,0.15625 0.05,0.0527 0.104,0.1058 0.15625,0.15625 0.0659,0.0683 0.14905,0.12305 0.21875,0.1875 0.0601,0.065 0.12401,0.12573 0.1875,0.1875 0.0419,0.0438 0.0816,0.0828 0.125,0.125 0.0615,0.0643 0.12267,0.12659 0.1875,0.1875 0.0816,0.0868 0.16245,0.16917 0.25,0.25 0.0105,0.0103 0.0206,0.021 0.0312,0.0312 0.0104,0.0106 0.0208,0.0208 0.0312,0.0312 0.0808,0.0859 0.16333,0.16998 0.25,0.25 0.0104,0.0106 0.0208,0.0208 0.0312,0.0312 0.0519,0.0543 0.10199,0.10437 0.15625,0.15625 0.0354,0.037 0.0573,0.0891 0.0937,0.125 0.0205,0.0209 0.0416,0.042 0.0625,0.0625 0.0205,0.0209 0.0416,0.042 0.0625,0.0625 0.0198,0.0201 0.0424,0.0427 0.0625,0.0625 0.0146,0.0154 0.0477,0.0161 0.0625,0.0312 0.006,0.007 -0.006,0.0248 0,0.0312 0.0103,0.0105 0.0209,0.0209 0.0312,0.0312 0.004,0.005 0.0268,-0.005 0.0312,0 0.0104,0.0106 0.0208,0.0208 0.0312,0.0312 0.0104,0.0106 0.0208,0.0208 0.0312,0.0312 0.0102,0.0105 0.0209,0.0208 0.0312,0.0312 0.0102,0.0105 0.0209,0.0208 0.0312,0.0312 0.006,0.006 -0.006,0.0255 0,0.0312 0.17522,0.17522 0.3942,0.32098 0.59375,0.46875 0.0122,0.008 0.0189,0.0229 0.0312,0.0312 0.0122,0.008 0.0189,0.0229 0.0312,0.0312 0.0122,0.008 0.0189,0.0229 0.0312,0.0312 0.27473,0.19262 0.56358,0.33383 0.875,0.46875 0.0131,0.006 0.0181,0.0257 0.0312,0.0312 0.59819,0.25302 1.27839,0.40625 1.96875,0.40625 0.16224,-9.6e-4 0.34177,-0.0152 0.5,-0.0312 1.1766,-0.11949 2.23953,-0.64578 3.03125,-1.4375 0.79172,-0.79171 1.31801,-1.85463 1.4375,-3.03125 0.0171,-0.16808 0.0312,-0.32741 0.0312,-0.5 0,-0.18301 -0.0121,-0.35333 -0.0312,-0.53125 -0.003,-0.0324 -0.0274,-0.0616 -0.0312,-0.0937 -0.009,-0.0733 -0.0193,-0.14649 -0.0312,-0.21875 -0.0106,-0.0616 -0.0184,-0.12671 -0.0312,-0.1875 -0.0646,-0.31553 -0.16029,-0.61542 -0.28125,-0.90625 -0.005,-0.0128 -0.0258,-0.0186 -0.0312,-0.0312 -0.004,-0.009 0.004,-0.0225 0,-0.0312 -0.12651,-0.2991 -0.28904,-0.57775 -0.46875,-0.84375 -0.004,-0.006 -0.0273,0.006 -0.0312,0 -0.005,-0.007 0.005,-0.0245 0,-0.0312 -0.0243,-0.036 -0.0685,-0.0584 -0.0937,-0.0937 -0.1392,-0.18797 -0.27387,-0.39604 -0.4375,-0.5625 -0.0102,-0.0102 -0.021,-0.0211 -0.0312,-0.0312 -0.0104,-0.0104 -0.0208,-0.021 -0.0312,-0.0312 -0.0101,-0.0103 -0.0211,-0.0211 -0.0312,-0.0312 -0.0209,-0.0217 -0.0412,-0.0412 -0.0625,-0.0625 -0.01,-0.0103 -0.0212,-0.021 -0.0312,-0.0312 -0.0103,-0.0101 -0.0209,-0.0212 -0.0312,-0.0312 -0.0198,-0.0208 -0.0423,-0.042 -0.0625,-0.0625 -0.0103,-0.0101 -0.0209,-0.0212 -0.0312,-0.0312 -0.01,-0.0103 -0.0212,-0.021 -0.0312,-0.0312 -0.0108,-0.0106 -0.0204,-0.0208 -0.0312,-0.0312 -0.01,-0.0103 -0.0212,-0.021 -0.0312,-0.0312 -0.0108,-0.0106 -0.0204,-0.0208 -0.0312,-0.0312 -0.01,-0.0105 -0.0214,-0.0208 -0.0312,-0.0312 -0.0108,-0.0106 -0.0204,-0.0208 -0.0312,-0.0312 -0.01,-0.0104 -0.0212,-0.021 -0.0312,-0.0312 -0.0108,-0.0106 -0.0204,-0.0208 -0.0312,-0.0312 -0.0104,-0.0108 -0.0207,-0.0205 -0.0312,-0.0312 -0.0105,-0.0103 -0.0207,-0.0211 -0.0312,-0.0312 -0.0192,-0.0213 -0.0429,-0.0415 -0.0625,-0.0625 -0.0104,-0.01 -0.0208,-0.0213 -0.0312,-0.0312 -0.0144,-0.0151 -0.048,-0.0163 -0.0625,-0.0312 -0.015,-0.0146 -0.016,-0.048 -0.0312,-0.0625 -0.008,-0.009 -0.0228,-0.022 -0.0312,-0.0312 -0.006,-0.005 -0.0255,0.005 -0.0312,0 -0.0152,-0.0148 -0.0159,-0.0479 -0.0312,-0.0625 -0.0145,-0.0152 -0.0479,-0.0162 -0.0625,-0.0312 -0.0157,-0.0153 -0.0153,-0.0474 -0.0312,-0.0625 -0.0146,-0.0154 -0.0478,-0.0161 -0.0625,-0.0312 -0.0152,-0.0148 -0.0159,-0.0479 -0.0312,-0.0625 -0.0362,-0.0362 -0.0878,-0.0587 -0.125,-0.0937 -0.0528,-0.0601 -0.1007,-0.13001 -0.15625,-0.1875 -0.0207,-0.02 -0.0414,-0.0428 -0.0625,-0.0625 -0.0196,-0.021 -0.0425,-0.0418 -0.0625,-0.0625 -0.0217,-0.021 -0.0404,-0.0419 -0.0625,-0.0625 -0.0196,-0.021 -0.0425,-0.0418 -0.0625,-0.0625 -0.0217,-0.021 -0.0404,-0.0419 -0.0625,-0.0625 -0.0196,-0.021 -0.0425,-0.0418 -0.0625,-0.0625 -0.0217,-0.021 -0.0404,-0.0419 -0.0625,-0.0625 -0.0205,-0.0221 -0.0416,-0.0408 -0.0625,-0.0625 -0.0211,-0.0204 -0.041,-0.0425 -0.0625,-0.0625 -0.051,-0.051 -0.10311,-0.10749 -0.15625,-0.15625 -0.0205,-0.022 -0.0416,-0.0409 -0.0625,-0.0625 -0.0217,-0.021 -0.0404,-0.0419 -0.0625,-0.0625 -0.051,-0.051 -0.10311,-0.10749 -0.15625,-0.15625 -0.051,-0.051 -0.10311,-0.10749 -0.15625,-0.15625 -0.051,-0.051 -0.10311,-0.10749 -0.15625,-0.15625 -0.0306,-0.0306 -0.0624,-0.064 -0.0937,-0.0937 -0.0818,-0.0861 -0.16232,-0.16988 -0.25,-0.25 -0.0306,-0.0306 -0.0624,-0.064 -0.0937,-0.0937 -0.061,-0.0642 -0.12321,-0.12659 -0.1875,-0.1875 -0.061,-0.0642 -0.12321,-0.12659 -0.1875,-0.1875 -0.061,-0.0642 -0.12321,-0.12659 -0.1875,-0.1875 -0.061,-0.0642 -0.12321,-0.12659 -0.1875,-0.1875 -0.0557,-0.0586 -0.12908,-0.10039 -0.1875,-0.15625 -0.0716,-0.0764 -0.14249,-0.14701 -0.21875,-0.21875 -0.0652,-0.0693 -0.11845,-0.15324 -0.1875,-0.21875 -0.10683,-0.11444 -0.2267,-0.20849 -0.34375,-0.3125 -0.10717,-0.12207 -0.22531,-0.23265 -0.34375,-0.34375 -0.0821,-0.0873 -0.16189,-0.16882 -0.25,-0.25 -0.0659,-0.0689 -0.11783,-0.15372 -0.1875,-0.21875 -0.0759,-0.0813 -0.16886,-0.14263 -0.25,-0.21875 -0.0815,-0.0869 -0.16254,-0.16912 -0.25,-0.25 -0.0851,-0.0906 -0.15836,-0.19717 -0.25,-0.28125 -0.0699,-0.0736 -0.14456,-0.14949 -0.21875,-0.21875 -0.0858,-0.0922 -0.18877,-0.16448 -0.28125,-0.25 -0.0911,-0.0985 -0.18253,-0.1903 -0.28125,-0.28125 -0.0806,-0.0858 -0.16352,-0.17003 -0.25,-0.25 -0.0911,-0.0985 -0.18253,-0.1903 -0.28125,-0.28125 -0.13213,-0.14289 -0.2584,-0.27957 -0.40625,-0.40625 -0.13351,-0.15746 -0.28574,-0.29768 -0.4375,-0.4375 -0.0899,-0.0973 -0.1839,-0.19138 -0.28125,-0.28125 -0.0954,-0.10354 -0.17751,-0.21732 -0.28125,-0.3125 -0.094,-0.10246 -0.21034,-0.18693 -0.3125,-0.28125 -0.1,-0.11001 -0.20317,-0.21178 -0.3125,-0.3125 -0.1,-0.11001 -0.20317,-0.21178 -0.3125,-0.3125 -0.1,-0.11001 -0.20317,-0.21178 -0.3125,-0.3125 -0.11014,-0.12119 -0.22231,-0.23388 -0.34375,-0.34375 -0.0997,-0.10795 -0.20377,-0.21368 -0.3125,-0.3125 -0.10458,-0.11507 -0.19772,-0.23886 -0.3125,-0.34375 -0.10489,-0.11478 -0.22868,-0.20792 -0.34375,-0.3125 -0.10987,-0.12144 -0.22257,-0.23361 -0.34375,-0.34375 -0.10987,-0.12144 -0.22257,-0.23361 -0.34375,-0.34375 -0.11515,-0.12727 -0.24745,-0.22891 -0.375,-0.34375 -0.11484,-0.12755 -0.21648,-0.25985 -0.34375,-0.375 -0.11515,-0.12727 -0.24745,-0.22891 -0.375,-0.34375 -0.1134,-0.12595 -0.21822,-0.26113 -0.34375,-0.375 -0.11872,-0.1329 -0.24287,-0.25545 -0.375,-0.375 -0.11872,-0.1329 -0.24287,-0.25545 -0.375,-0.375 -0.12878,-0.14416 -0.26175,-0.27785 -0.40625,-0.40625 -0.11827,-0.13038 -0.24371,-0.25772 -0.375,-0.375 -0.12923,-0.14283 -0.26148,-0.27915 -0.40625,-0.40625 -0.11827,-0.13038 -0.24371,-0.25772 -0.375,-0.375 -0.11728,-0.13129 -0.24462,-0.25673 -0.375,-0.375 -0.13706,-0.15612 -0.28221,-0.29952 -0.4375,-0.4375 -0.13429,-0.15033 -0.28615,-0.2731 -0.4375,-0.40625 -0.12312,-0.13706 -0.2376,-0.28351 -0.375,-0.40625 -0.13362,-0.15039 -0.28684,-0.27293 -0.4375,-0.40625 -0.12732,-0.14388 -0.26333,-0.27788 -0.40625,-0.40625 -0.1415,-0.16271 -0.27633,-0.32555 -0.4375,-0.46875 -0.13706,-0.15612 -0.28221,-0.29952 -0.4375,-0.4375 C 134.65104,88.113169 91.059379,44.621879 54.90625,8.46875 53.991468,7.2917009 52.606164,6.5 51,6.5 z m -19.75,5.28125 c -2.761423,0 -5,2.23858 -5,5 0,1.606168 0.791701,3.022718 1.96875,3.9375 8.190947,8.190947 12.172838,12.204088 22.28125,22.3125 0.12541,0.163801 0.23068,0.321808 0.375,0.46875 -4.043826,0.06546 -7.30954,3.331286 -7.375,7.375 C 43.353058,50.73068 43.195051,50.62541 43.03125,50.5 32.407,39.87575 27.22684,34.73951 20.71875,28.21875 19.803968,27.041701 18.387414,26.25 16.78125,26.25 c -2.761423,0 -5,2.23858 -5,5 0,1.631111 0.791517,3.087323 2,4 56.805403,56.805403 100.02928,100.06003 146.12315,146.1539 0.0505,0.0542 0.10344,0.10436 0.15625,0.15625 0.10923,0.12294 0.22303,0.23212 0.34375,0.34375 0.0873,0.0929 0.18716,0.16399 0.28125,0.25 0.009,0.0111 0.0219,0.0203 0.0312,0.0312 0.0264,0.0272 0.0355,0.0672 0.0625,0.0937 0.0977,0.10939 0.20563,0.21209 0.3125,0.3125 0.0753,0.0801 0.13839,0.17498 0.21875,0.25 0.07,0.0738 0.14438,0.14933 0.21875,0.21875 0.0562,0.0592 0.12849,0.0998 0.1875,0.15625 0.07,0.0757 0.14422,0.14749 0.21875,0.21875 0.0716,0.0764 0.14249,0.14701 0.21875,0.21875 0.0608,0.0646 0.12337,0.12618 0.1875,0.1875 0.0659,0.0702 0.11765,0.15248 0.1875,0.21875 0.0655,0.0691 0.14943,0.12228 0.21875,0.1875 0.0559,0.0584 0.0976,0.13184 0.15625,0.1875 0.0759,0.0799 0.16904,0.144 0.25,0.21875 0.0207,0.0211 0.0414,0.0418 0.0625,0.0625 0.0709,0.0768 0.14322,0.14653 0.21875,0.21875 0.0812,0.0849 0.16301,0.17093 0.25,0.25 0.0715,0.0776 0.14257,0.14584 0.21875,0.21875 0.0458,0.0479 0.0773,0.11017 0.125,0.15625 0.0759,0.0799 0.16903,0.144 0.25,0.21875 0.0644,0.0697 0.11922,0.15282 0.1875,0.21875 0.0204,0.0211 0.0417,0.0417 0.0625,0.0625 0.0168,0.0157 0.0454,0.0158 0.0625,0.0312 0.0418,0.0438 0.0816,0.0828 0.125,0.125 0.0413,0.0431 0.0822,0.0834 0.125,0.125 0.0415,0.0434 0.0819,0.0831 0.125,0.125 0.016,0.0164 0.0151,0.0463 0.0312,0.0625 0.0389,0.0368 0.0849,0.0582 0.125,0.0937 0.0451,0.0479 0.0781,0.11014 0.125,0.15625 0.0302,0.0313 0.0627,0.0633 0.0937,0.0937 0.0302,0.0313 0.0627,0.0633 0.0937,0.0937 0.0305,0.0316 0.0624,0.063 0.0937,0.0937 0.0103,0.0105 0.0209,0.0209 0.0312,0.0312 0.0169,0.0163 0.0454,0.0152 0.0625,0.0312 0.006,0.006 -0.006,0.0253 0,0.0312 0.009,0.01 0.0218,0.0218 0.0312,0.0312 0.0111,0.0102 0.02,0.0212 0.0312,0.0312 0.0103,0.0105 0.0209,0.0209 0.0312,0.0312 0.0113,0.01 0.0199,0.0214 0.0312,0.0312 0.0204,0.0207 0.0418,0.0421 0.0625,0.0625 0.0204,0.0207 0.0418,0.0421 0.0625,0.0625 0.0197,0.0201 0.0424,0.0428 0.0625,0.0625 0.01,0.0106 0.0214,0.0207 0.0312,0.0312 0.01,0.01 0.0215,0.0215 0.0312,0.0312 0.004,0.005 0.0268,-0.005 0.0312,0 0.01,0.009 0.0216,0.0219 0.0312,0.0312 0.006,0.006 -0.006,0.0253 0,0.0312 0.0193,0.02 0.0428,0.0428 0.0625,0.0625 0.0102,0.0106 0.021,0.0208 0.0312,0.0312 0.0101,0.0103 0.0211,0.0211 0.0312,0.0312 0.0627,0.0616 0.15286,0.0979 0.21875,0.15625 0.1189,0.10705 0.24619,0.21711 0.375,0.3125 0.0125,0.009 0.0187,0.0228 0.0312,0.0312 0.0125,0.009 0.0187,0.0228 0.0312,0.0312 0.0122,0.008 0.0189,0.0229 0.0312,0.0312 0.0119,0.008 0.0193,0.0231 0.0312,0.0312 0.0119,0.008 0.0193,0.0231 0.0312,0.0312 0.532,0.35942 1.13027,0.61679 1.78125,0.75 0.16274,0.0333 0.33191,0.0454 0.5,0.0625 0.16809,0.0171 0.35866,0.0312 0.53125,0.0312 0.1616,-0.001 0.31113,-0.0152 0.46875,-0.0312 0.0105,-0.001 0.0208,0.001 0.0312,0 0.16809,-0.0171 0.33726,-0.0292 0.5,-0.0625 0.65097,-0.13321 1.24925,-0.39058 1.78125,-0.75 1.19701,-0.80867 2.03387,-2.14345 2.1875,-3.65625 0.0152,-0.1585 0.0312,-0.33753 0.0312,-0.5 0,-0.17259 -0.0142,-0.33191 -0.0312,-0.5 -0.0171,-0.16808 -0.0605,-0.33726 -0.0937,-0.5 -0.003,-0.0129 -0.0285,-0.0183 -0.0312,-0.0312 -0.002,-0.01 0.002,-0.0213 0,-0.0312 -0.0991,-0.45163 -0.25667,-0.88444 -0.46875,-1.28125 -0.0837,-0.15559 -0.15089,-0.32359 -0.25,-0.46875 -0.0162,-0.024 -0.0459,-0.0388 -0.0625,-0.0625 -25.81342,-20.7777 -22.03022,-38.19194 4.2198,-10.6553 0.05,0.0527 0.104,0.1058 0.15625,0.15625 0.05,0.0527 0.104,0.1058 0.15625,0.15625 0.0759,0.0799 0.16903,0.144 0.25,0.21875 0.0644,0.0697 0.11922,0.15282 0.1875,0.21875 0.0815,0.0844 0.19405,0.14025 0.28125,0.21875 0.0259,0.0271 0.036,0.0672 0.0625,0.0937 0.004,0.005 0.027,-0.005 0.0312,0 0.0358,0.0382 0.0567,0.088 0.0937,0.125 0.0555,0.0591 0.098,0.1312 0.15625,0.1875 0.0363,0.0376 0.0875,0.0573 0.125,0.0937 0.016,0.0164 0.0151,0.0463 0.0312,0.0625 0.0109,0.0103 0.0203,0.021 0.0312,0.0312 0.0565,0.0585 0.12826,0.10052 0.1875,0.15625 0.0364,0.0381 0.0562,0.0881 0.0937,0.125 0.0359,0.0372 0.0879,0.0577 0.125,0.0937 0.006,0.006 -0.006,0.0253 0,0.0312 0.009,0.01 0.0218,0.0218 0.0312,0.0312 0.0104,0.01 0.0207,0.0214 0.0312,0.0312 0.0462,0.047 0.10828,0.0799 0.15625,0.125 0.0104,0.0106 0.0208,0.0208 0.0312,0.0312 0.004,0.005 0.027,-0.005 0.0312,0 0.06,0.0656 0.0929,0.15641 0.15625,0.21875 0.004,0.005 0.0268,-0.005 0.0312,0 0.0102,0.0106 0.021,0.0207 0.0312,0.0312 0.006,0.007 -0.006,0.0248 0,0.0312 0.0103,0.0105 0.0209,0.0209 0.0312,0.0312 0.0103,0.0105 0.0209,0.0209 0.0312,0.0312 0.004,0.005 0.0268,-0.005 0.0312,0 0.005,0.006 -0.005,0.0256 0,0.0312 0.0101,0.0103 0.0211,0.0211 0.0312,0.0312 0.0101,0.0103 0.0211,0.0211 0.0312,0.0312 0.16646,0.16363 0.37453,0.2983 0.5625,0.4375 0.0118,0.009 0.0194,0.0225 0.0312,0.0312 0.0119,0.008 0.0193,0.0231 0.0312,0.0312 0.0119,0.008 0.0193,0.0231 0.0312,0.0312 0.0237,0.0166 0.0385,0.0463 0.0625,0.0625 0.007,0.005 0.0244,-0.005 0.0312,0 0.50779,0.33909 1.10288,0.58366 1.71875,0.71875 0.0228,0.005 0.0396,0.0266 0.0625,0.0312 0.0201,0.004 0.0423,-0.004 0.0625,0 0.1437,0.0276 0.28971,0.0787 0.4375,0.0937 0.16809,0.0171 0.32741,0.0312 0.5,0.0312 0.16247,0 0.3415,-0.0161 0.5,-0.0312 1.18486,-0.12033 2.23771,-0.66774 3.03125,-1.46875 0.66989,-0.67621 1.17682,-1.53154 1.375,-2.5 0.0333,-0.16275 0.0454,-0.33191 0.0625,-0.5 0.0192,-0.17792 0.0312,-0.34824 0.0312,-0.53125 0,-0.17259 -0.0142,-0.33191 -0.0312,-0.5 -0.0171,-0.16808 -0.0292,-0.33726 -0.0625,-0.5 -0.13464,-0.65799 -0.4158,-1.24511 -0.78125,-1.78125 -0.005,-0.007 0.005,-0.0245 0,-0.0312 -0.008,-0.0118 -0.0233,-0.0195 -0.0312,-0.0312 -0.0228,-0.0356 -0.0701,-0.0587 -0.0937,-0.0937 -0.0954,-0.12881 -0.20545,-0.2561 -0.3125,-0.375 -0.009,-0.0107 -0.0217,-0.0206 -0.0312,-0.0312 -0.0455,-0.0494 -0.0775,-0.10877 -0.125,-0.15625 -0.006,-0.006 0.006,-0.0253 0,-0.0312 -0.0162,-0.0162 -0.0461,-0.0153 -0.0625,-0.0312 -0.0257,-0.0265 -0.0362,-0.0679 -0.0625,-0.0937 -0.006,-0.005 -0.0255,0.005 -0.0312,0 -0.009,-0.01 -0.0218,-0.0217 -0.0312,-0.0312 -0.005,-0.004 0.005,-0.0268 0,-0.0312 -0.01,-0.01 -0.0215,-0.0216 -0.0312,-0.0312 -0.0105,-0.01 -0.0206,-0.0215 -0.0312,-0.0312 -0.0106,-0.0102 -0.0206,-0.0211 -0.0312,-0.0312 -0.01,-0.0104 -0.0212,-0.021 -0.0312,-0.0312 -0.0103,-0.0101 -0.0209,-0.0212 -0.0312,-0.0312 -0.01,-0.0103 -0.0212,-0.021 -0.0312,-0.0312 -0.0105,-0.0103 -0.0207,-0.0211 -0.0312,-0.0312 -0.01,-0.0114 -0.0214,-0.0199 -0.0312,-0.0312 -0.0105,-0.0103 -0.0207,-0.0211 -0.0312,-0.0312 -0.01,-0.0113 -0.0212,-0.02 -0.0312,-0.0312 -0.0105,-0.0103 -0.0207,-0.0211 -0.0312,-0.0312 -0.009,-0.01 -0.0223,-0.0216 -0.0312,-0.0312 -0.006,-0.006 -0.0253,0.006 -0.0312,0 -0.015,-0.0146 -0.016,-0.048 -0.0312,-0.0625 -0.0105,-0.0109 -0.0207,-0.0205 -0.0312,-0.0312 -0.0105,-0.0103 -0.0207,-0.0211 -0.0312,-0.0312 -0.0202,-0.0213 -0.042,-0.0416 -0.0625,-0.0625 -0.0104,-0.01 -0.0208,-0.0213 -0.0312,-0.0312 -0.0201,-0.0212 -0.042,-0.0416 -0.0625,-0.0625 -0.0104,-0.01 -0.0208,-0.0213 -0.0312,-0.0312 -0.0202,-0.0213 -0.042,-0.0416 -0.0625,-0.0625 -0.0104,-0.01 -0.0208,-0.0213 -0.0312,-0.0312 -0.0362,-0.0362 -0.0878,-0.0587 -0.125,-0.0937 -0.0502,-0.0565 -0.10361,-0.10212 -0.15625,-0.15625 -0.0152,-0.0148 -0.0159,-0.0479 -0.0312,-0.0625 -0.0408,-0.0408 -0.0828,-0.0856 -0.125,-0.125 -0.0408,-0.0408 -0.0828,-0.0856 -0.125,-0.125 -0.0415,-0.0415 -0.082,-0.0849 -0.125,-0.125 -0.02,-0.0215 -0.0421,-0.0414 -0.0625,-0.0625 -0.0211,-0.0204 -0.041,-0.0425 -0.0625,-0.0625 -0.0463,-0.0463 -0.10811,-0.0805 -0.15625,-0.125 -0.0943,-0.10216 -0.17879,-0.21849 -0.28125,-0.3125 -0.0266,-0.0266 -0.0666,-0.0365 -0.0937,-0.0625 -0.0729,-0.0762 -0.14119,-0.14729 -0.21875,-0.21875 -0.0791,-0.087 -0.16505,-0.16877 -0.25,-0.25 -0.0824,-0.0861 -0.16171,-0.16991 -0.25,-0.25 -0.0839,-0.0925 -0.15947,-0.19528 -0.25,-0.28125 -0.0557,-0.0586 -0.12908,-0.10039 -0.1875,-0.15625 -0.0652,-0.0693 -0.11845,-0.15324 -0.1875,-0.21875 -0.0663,-0.0699 -0.14858,-0.12157 -0.21875,-0.1875 -0.0613,-0.0641 -0.12287,-0.1267 -0.1875,-0.1875 -0.0717,-0.0763 -0.14239,-0.14712 -0.21875,-0.21875 -0.0713,-0.0745 -0.14304,-0.14874 -0.21875,-0.21875 -0.0564,-0.059 -0.097,-0.1313 -0.15625,-0.1875 -0.0694,-0.0744 -0.14495,-0.14873 -0.21875,-0.21875 -0.075,-0.0804 -0.16988,-0.14347 -0.25,-0.21875 -0.11029,-0.11739 -0.22267,-0.23745 -0.34375,-0.34375 -0.0265,-0.0265 -0.0666,-0.0366 -0.0937,-0.0625 -0.086,-0.0941 -0.1571,-0.19397 -0.25,-0.28125 -0.12188,-0.13181 -0.23969,-0.25694 -0.375,-0.375 -0.0419,-0.0419 -0.0817,-0.0846 -0.125,-0.125 -0.0404,-0.0433 -0.0831,-0.0831 -0.125,-0.125 -0.12542,-0.14536 -0.2651,-0.27621 -0.40625,-0.40625 -0.1218,-0.12963 -0.2401,-0.25895 -0.375,-0.375 -0.037,-0.037 -0.0868,-0.0579 -0.125,-0.0937 -0.095,-0.10394 -0.17787,-0.2169 -0.28125,-0.3125 -0.08,-0.0865 -0.16415,-0.16934 -0.25,-0.25 -0.0988,-0.10872 -0.20455,-0.21284 -0.3125,-0.3125 -0.0908,-0.0984 -0.1829,-0.19045 -0.28125,-0.28125 -0.0943,-0.10217 -0.17879,-0.21849 -0.28125,-0.3125 -0.0952,-0.10374 -0.20896,-0.18586 -0.3125,-0.28125 -0.0997,-0.10794 -0.20377,-0.21368 -0.3125,-0.3125 -0.0908,-0.0984 -0.1829,-0.19045 -0.28125,-0.28125 C 131.07943,109.514 82.540665,61.071915 35.25,13.78125 c -0.912678,-1.208484 -2.368893,-2 -4,-2 z m 39.5,0 c -2.761423,0 -5,2.23858 -5,5 0,1.613167 0.751655,3.054492 1.9375,3.96875 39.72332,39.723317 69.62673,69.65943 106.1526,106.1853 0.0847,0.0918 0.15873,0.19606 0.25,0.28125 0.0804,0.0864 0.16368,0.16942 0.25,0.25 0.076,0.0816 0.16877,0.14233 0.25,0.21875 0.0847,0.0918 0.15873,0.19606 0.25,0.28125 0.0759,0.0813 0.16886,0.14263 0.25,0.21875 0.0761,0.0811 0.13742,0.17408 0.21875,0.25 0.0759,0.0813 0.16886,0.14263 0.25,0.21875 0.0756,0.0804 0.138,0.17476 0.21875,0.25 0.0659,0.0694 0.14901,0.12199 0.21875,0.1875 0.0454,0.0482 0.0778,0.10985 0.125,0.15625 0.10967,0.1209 0.22285,0.23408 0.34375,0.34375 0.0205,0.0208 0.0417,0.042 0.0625,0.0625 0.10967,0.1209 0.22285,0.23408 0.34375,0.34375 0.0419,0.0426 0.0816,0.0839 0.125,0.125 0.0658,0.0693 0.14906,0.12203 0.21875,0.1875 0.01,0.0111 0.0215,0.0202 0.0312,0.0312 0.0158,0.0162 0.0153,0.0465 0.0312,0.0625 0.011,0.01 0.0202,0.0215 0.0312,0.0312 0.0908,0.0984 0.1829,0.19045 0.28125,0.28125 0.0409,0.0416 0.0827,0.0848 0.125,0.125 0.0505,0.0532 0.10346,0.10532 0.15625,0.15625 0.0497,0.0523 0.10439,0.10614 0.15625,0.15625 0.0306,0.0322 0.0623,0.0623 0.0937,0.0937 0.0212,0.0194 0.041,0.0434 0.0625,0.0625 0.0504,0.0531 0.10363,0.1054 0.15625,0.15625 0.0496,0.0522 0.10446,0.1062 0.15625,0.15625 0.046,0.0484 0.1084,0.0785 0.15625,0.125 0.10373,0.11754 0.19828,0.23644 0.3125,0.34375 0.0312,0.0318 0.0617,0.0628 0.0937,0.0937 0.041,0.0424 0.0826,0.0841 0.125,0.125 0.0363,0.0376 0.0875,0.0573 0.125,0.0937 0.0363,0.0374 0.0563,0.0888 0.0937,0.125 0.0406,0.042 0.0829,0.0844 0.125,0.125 0.0106,0.0108 0.0206,0.0206 0.0312,0.0312 0.0615,0.0655 0.12255,0.1254 0.1875,0.1875 0.0101,0.0107 0.0211,0.0206 0.0312,0.0312 0.0107,0.01 0.0205,0.0213 0.0312,0.0312 0.0524,0.0538 0.10151,0.10482 0.15625,0.15625 0.02,0.0207 0.0421,0.0421 0.0625,0.0625 0.0621,0.0649 0.12201,0.12597 0.1875,0.1875 0.0204,0.0207 0.0418,0.0421 0.0625,0.0625 0.0101,0.0103 0.0211,0.0211 0.0312,0.0312 0.0138,0.0161 0.0485,0.0154 0.0625,0.0312 0.005,0.006 -0.006,0.0252 0,0.0312 0.004,0.005 0.0268,-0.005 0.0312,0 0.005,0.006 -0.006,0.0252 0,0.0312 0.0107,0.0105 0.0204,0.0208 0.0312,0.0312 0.0101,0.0103 0.0211,0.0211 0.0312,0.0312 0.0201,0.0214 0.042,0.0415 0.0625,0.0625 0.006,0.007 -0.006,0.0248 0,0.0312 0.005,0.005 0.0265,-0.005 0.0312,0 0.006,0.006 -0.006,0.0255 0,0.0312 0.005,0.005 0.0265,-0.005 0.0312,0 0.0105,0.0102 0.0206,0.0211 0.0312,0.0312 0.006,0.006 -0.006,0.0255 0,0.0312 0.005,0.005 0.0264,-0.005 0.0312,0 0.0472,0.0467 0.1072,0.0802 0.15625,0.125 0.10686,0.0988 0.22856,0.19196 0.34375,0.28125 0.0122,0.008 0.0189,0.0229 0.0312,0.0312 0.011,0.008 0.0202,0.0237 0.0312,0.0312 0.0596,0.0442 0.0947,0.11466 0.15625,0.15625 0.007,0.004 0.0247,-0.004 0.0312,0 0.0572,0.0382 0.12866,0.0579 0.1875,0.0937 0.4881,0.30086 1.0134,0.53749 1.59375,0.65625 0.1327,0.0272 0.26995,0.0461 0.40625,0.0625 0.0309,0.004 0.0627,-0.003 0.0937,0 0.16809,0.0171 0.32741,0.0312 0.5,0.0312 0.17259,0 0.33191,-0.0142 0.5,-0.0312 0.16809,-0.0171 0.33726,-0.0292 0.5,-0.0625 0.64194,-0.13136 1.25464,-0.3983 1.78125,-0.75 0.532,-0.35941 1.01559,-0.843 1.375,-1.375 0.35169,-0.52661 0.61864,-1.13931 0.75,-1.78125 0.0666,-0.32549 0.0937,-0.65481 0.0937,-1 0,-0.18321 -0.012,-0.35314 -0.0312,-0.53125 -0.002,-0.0203 0.002,-0.0423 0,-0.0625 -0.0164,-0.1363 -0.0353,-0.27355 -0.0625,-0.40625 -0.0676,-0.33061 -0.1831,-0.63418 -0.3125,-0.9375 -0.004,-0.009 0.004,-0.0227 0,-0.0312 -0.12648,-0.29199 -0.26009,-0.5838 -0.4375,-0.84375 -0.0416,-0.0616 -0.11203,-0.0967 -0.15625,-0.15625 -0.008,-0.0121 -0.0227,-0.0192 -0.0312,-0.0312 -0.008,-0.0123 -0.0228,-0.019 -0.0312,-0.0312 -0.0911,-0.11831 -0.18011,-0.23416 -0.28125,-0.34375 -0.0151,-0.0164 -0.0159,-0.0463 -0.0312,-0.0625 -0.0306,-0.0322 -0.0623,-0.0623 -0.0937,-0.0937 -0.0119,-0.012 -0.0193,-0.0194 -0.0312,-0.0312 -0.0102,-0.0102 -0.021,-0.0211 -0.0312,-0.0312 -0.006,-0.006 0.006,-0.0252 0,-0.0312 -0.0165,-0.0159 -0.0458,-0.0156 -0.0625,-0.0312 -0.01,-0.01 -0.0214,-0.0217 -0.0312,-0.0312 -0.0109,-0.01 -0.0202,-0.0213 -0.0312,-0.0312 -0.0104,-0.0109 -0.0208,-0.0204 -0.0312,-0.0312 -0.0103,-0.0101 -0.0209,-0.0212 -0.0312,-0.0312 -0.006,-0.005 -0.0251,0.005 -0.0312,0 -0.005,-0.005 0.005,-0.0266 0,-0.0312 -0.006,-0.005 -0.0251,0.005 -0.0312,0 -0.009,-0.0105 -0.0217,-0.0208 -0.0312,-0.0312 -0.005,-0.004 0.005,-0.027 0,-0.0312 -0.0102,-0.011 -0.0209,-0.0204 -0.0312,-0.0312 -0.0103,-0.0101 -0.0209,-0.0212 -0.0312,-0.0312 -0.0105,-0.0109 -0.0207,-0.0205 -0.0312,-0.0312 -0.0103,-0.0101 -0.0209,-0.0212 -0.0312,-0.0312 -0.0519,-0.0543 -0.10194,-0.10432 -0.15625,-0.15625 -0.026,-0.0272 -0.0359,-0.0672 -0.0625,-0.0937 -0.0144,-0.0152 -0.0479,-0.0162 -0.0625,-0.0312 -0.0152,-0.0148 -0.0159,-0.0479 -0.0312,-0.0625 -0.0162,-0.0162 -0.0461,-0.0153 -0.0625,-0.0312 -0.0106,-0.0108 -0.0206,-0.0206 -0.0312,-0.0312 -0.0716,-0.0761 -0.1426,-0.1472 -0.21875,-0.21875 -0.0102,-0.0107 -0.021,-0.0206 -0.0312,-0.0312 -0.0215,-0.0212 -0.0406,-0.0417 -0.0625,-0.0625 -0.076,-0.0809 -0.13758,-0.17433 -0.21875,-0.25 -0.0369,-0.0369 -0.0869,-0.058 -0.125,-0.0937 -0.0103,-0.011 -0.0209,-0.0203 -0.0312,-0.0312 -0.0108,-0.01 -0.0204,-0.0214 -0.0312,-0.0312 -0.0207,-0.02 -0.0414,-0.0428 -0.0625,-0.0625 -0.0908,-0.0983 -0.18294,-0.19049 -0.28125,-0.28125 -0.025,-0.0269 -0.0681,-0.0362 -0.0937,-0.0625 -0.006,-0.006 0.006,-0.0253 0,-0.0312 -0.0111,-0.01 -0.0201,-0.0217 -0.0312,-0.0312 -0.051,-0.051 -0.10311,-0.10749 -0.15625,-0.15625 -0.051,-0.051 -0.10311,-0.10749 -0.15625,-0.15625 -0.0523,-0.0524 -0.10163,-0.10625 -0.15625,-0.15625 -0.0292,-0.0319 -0.0637,-0.0626 -0.0937,-0.0937 -0.0215,-0.0204 -0.0406,-0.0425 -0.0625,-0.0625 -0.051,-0.051 -0.10311,-0.10749 -0.15625,-0.15625 -0.0306,-0.0306 -0.0624,-0.064 -0.0937,-0.0937 -0.0298,-0.0314 -0.0632,-0.0632 -0.0937,-0.0937 -0.10966,-0.12088 -0.22287,-0.23409 -0.34375,-0.34375 -0.0884,-0.0983 -0.18545,-0.19027 -0.28125,-0.28125 -0.0311,-0.0329 -0.0617,-0.0617 -0.0937,-0.0937 -0.12816,-0.14379 -0.26246,-0.27809 -0.40625,-0.40625 -0.12816,-0.14379 -0.26246,-0.27809 -0.40625,-0.40625 -0.0362,-0.0362 -0.0878,-0.0587 -0.125,-0.0937 -0.13236,-0.15962 -0.28658,-0.29552 -0.4375,-0.4375 -0.0761,-0.0811 -0.13742,-0.17408 -0.21875,-0.25 -0.0759,-0.0813 -0.16886,-0.14263 -0.25,-0.21875 -0.0761,-0.0811 -0.13742,-0.17408 -0.21875,-0.25 -0.0852,-0.0913 -0.1895,-0.16532 -0.28125,-0.25 -0.0764,-0.0812 -0.1371,-0.17403 -0.21875,-0.25 -0.0806,-0.0863 -0.16355,-0.16956 -0.25,-0.25 -0.0852,-0.0913 -0.1895,-0.16532 -0.28125,-0.25 -0.0815,-0.0869 -0.16254,-0.16912 -0.25,-0.25 -0.0911,-0.0986 -0.18253,-0.1903 -0.28125,-0.28125 -0.0761,-0.0812 -0.1374,-0.17406 -0.21875,-0.25 -0.089,-0.0972 -0.18495,-0.19136 -0.28125,-0.28125 -0.0943,-0.10298 -0.21,-0.18647 -0.3125,-0.28125 -0.0758,-0.0823 -0.13759,-0.17292 -0.21875,-0.25 -0.12816,-0.14379 -0.26246,-0.27809 -0.40625,-0.40625 -0.0604,-0.0636 -0.12387,-0.12716 -0.1875,-0.1875 -0.13361,-0.14991 -0.28693,-0.27337 -0.4375,-0.40625 -0.0719,-0.0753 -0.14231,-0.14806 -0.21875,-0.21875 -0.0991,-0.1093 -0.20418,-0.21234 -0.3125,-0.3125 -0.0894,-0.0986 -0.18431,-0.19005 -0.28125,-0.28125 -0.13831,-0.15672 -0.28078,-0.29919 -0.4375,-0.4375 -0.0868,-0.0922 -0.15651,-0.19582 -0.25,-0.28125 -0.10489,-0.11478 -0.22868,-0.20792 -0.34375,-0.3125 -0.1076,-0.11839 -0.22536,-0.23614 -0.34375,-0.34375 -0.1189,-0.13082 -0.24299,-0.25741 -0.375,-0.375 -0.11022,-0.11919 -0.22251,-0.23575 -0.34375,-0.34375 -0.0988,-0.10686 -0.20478,-0.2146 -0.3125,-0.3125 -0.11515,-0.12727 -0.24745,-0.22891 -0.375,-0.34375 -0.10373,-0.11521 -0.19859,-0.23862 -0.3125,-0.34375 -0.1426,-0.16158 -0.27536,-0.32677 -0.4375,-0.46875 C 145.54032,84.568761 102.63494,41.697439 74.6875,13.75 73.773241,12.564154 72.363163,11.78125 70.75,11.78125 z M 11.5,46 c -2.7614234,0 -5,2.2386 -5,5 0,1.60615 0.7917015,2.991463 1.96875,3.90625 49.355009,49.35501 103.67426,103.76731 122.74845,122.8415 0.11728,0.13129 0.24462,0.25673 0.375,0.375 0.1284,0.1445 0.26209,0.27747 0.40625,0.40625 0.11955,0.13213 0.2421,0.25628 0.375,0.375 0.11955,0.13213 0.2421,0.25628 0.375,0.375 0.11387,0.12553 0.24905,0.23035 0.375,0.34375 0.11484,0.12755 0.21648,0.25985 0.34375,0.375 0.11515,0.12727 0.24745,0.22891 0.375,0.34375 0.11484,0.12755 0.21648,0.25985 0.34375,0.375 0.11014,0.12119 0.22231,0.23388 0.34375,0.34375 0.11014,0.12119 0.22231,0.23388 0.34375,0.34375 0.10458,0.11507 0.19772,0.23886 0.3125,0.34375 0.10489,0.11478 0.22868,0.20792 0.34375,0.3125 0.0988,0.10873 0.20455,0.21284 0.3125,0.3125 0.10987,0.12144 0.22257,0.23361 0.34375,0.34375 0.10072,0.10933 0.20249,0.21251 0.3125,0.3125 0.10072,0.10933 0.20249,0.21251 0.3125,0.3125 0.10072,0.10933 0.20249,0.21251 0.3125,0.3125 0.0943,0.10217 0.17879,0.21849 0.28125,0.3125 0.0952,0.10374 0.20896,0.18586 0.3125,0.28125 0.0899,0.0974 0.18398,0.1913 0.28125,0.28125 0.12027,0.13054 0.24158,0.25786 0.375,0.375 0.0411,0.0426 0.0824,0.0839 0.125,0.125 0.10923,0.12293 0.22303,0.23212 0.34375,0.34375 0.0909,0.0987 0.1827,0.19012 0.28125,0.28125 0.08,0.0865 0.16416,0.16935 0.25,0.25 0.0909,0.0987 0.1827,0.19012 0.28125,0.28125 0.0855,0.0925 0.15779,0.19545 0.25,0.28125 0.0693,0.0742 0.14514,0.14889 0.21875,0.21875 0.0841,0.0916 0.19062,0.16485 0.28125,0.25 0.0809,0.0875 0.16312,0.1685 0.25,0.25 0.0761,0.0811 0.13742,0.17408 0.21875,0.25 0.065,0.0697 0.14987,0.12164 0.21875,0.1875 0.0812,0.0881 0.16275,0.16791 0.25,0.25 0.10124,0.10792 0.20213,0.2139 0.3125,0.3125 0.0104,0.0106 0.0208,0.0208 0.0312,0.0312 0.0108,0.01 0.0203,0.0218 0.0312,0.0312 0.0949,0.1049 0.17785,0.21598 0.28125,0.3125 0.0655,0.0691 0.14943,0.12228 0.21875,0.1875 0.0717,0.0762 0.14239,0.14712 0.21875,0.21875 0.0559,0.0584 0.0976,0.13184 0.15625,0.1875 0.0609,0.0643 0.12328,0.12651 0.1875,0.1875 0.0609,0.0643 0.12328,0.12651 0.1875,0.1875 0.0609,0.0643 0.12328,0.12651 0.1875,0.1875 0.0609,0.0643 0.12328,0.12651 0.1875,0.1875 0.05,0.0526 0.10403,0.10582 0.15625,0.15625 0.0609,0.0643 0.12328,0.12651 0.1875,0.1875 0.0505,0.0532 0.10346,0.10532 0.15625,0.15625 0.0505,0.0532 0.10346,0.10532 0.15625,0.15625 0.0505,0.0532 0.10346,0.10532 0.15625,0.15625 0.0505,0.0532 0.10346,0.10532 0.15625,0.15625 0.0409,0.0424 0.0826,0.084 0.125,0.125 0.0505,0.0532 0.10344,0.1053 0.15625,0.15625 0.0404,0.0418 0.0832,0.0846 0.125,0.125 0.0409,0.0425 0.0826,0.084 0.125,0.125 0.0409,0.0424 0.0826,0.084 0.125,0.125 0.0409,0.0425 0.0826,0.084 0.125,0.125 0.02,0.0207 0.0421,0.0421 0.0625,0.0625 0.0374,0.0349 0.0865,0.06 0.125,0.0937 0.0507,0.0539 0.1032,0.10463 0.15625,0.15625 0.0315,0.0324 0.0614,0.0622 0.0937,0.0937 0.0163,0.0168 0.0147,0.046 0.0312,0.0625 0.0162,0.0154 0.0461,0.0161 0.0625,0.0312 0.005,0.006 -0.005,0.0255 0,0.0312 0.0253,0.0257 0.0679,0.0373 0.0937,0.0625 0.0155,0.016 0.0155,0.0467 0.0312,0.0625 0.0104,0.01 0.0207,0.0214 0.0312,0.0312 0.0305,0.0316 0.0624,0.063 0.0937,0.0937 0.0204,0.0207 0.0418,0.0421 0.0625,0.0625 0.0106,0.0108 0.0206,0.0206 0.0312,0.0312 0.0103,0.01 0.0208,0.0214 0.0312,0.0312 0.0207,0.021 0.0415,0.0418 0.0625,0.0625 0.0207,0.021 0.0415,0.0418 0.0625,0.0625 0.0207,0.021 0.0415,0.0418 0.0625,0.0625 0.0101,0.0103 0.0211,0.0211 0.0312,0.0312 0.0206,0.021 0.0415,0.0418 0.0625,0.0625 0.0101,0.0103 0.0211,0.0211 0.0312,0.0312 0.0101,0.0103 0.0211,0.0211 0.0312,0.0312 0.0101,0.0103 0.0211,0.0211 0.0312,0.0312 0.0101,0.0103 0.0211,0.0211 0.0312,0.0312 0.0101,0.0103 0.0211,0.0211 0.0312,0.0312 0.0101,0.0103 0.0211,0.0211 0.0312,0.0312 0.16646,0.16363 0.37453,0.2983 0.5625,0.4375 0.0353,0.0252 0.0578,0.0694 0.0937,0.0937 0.0125,0.009 0.0187,0.0228 0.0312,0.0312 0.12852,0.0885 0.26943,0.14239 0.40625,0.21875 0.12272,0.0691 0.24613,0.16001 0.375,0.21875 0.0215,0.009 0.0409,0.0221 0.0625,0.0312 0.0131,0.006 0.0181,0.0257 0.0312,0.0312 0.008,0.004 0.023,-0.004 0.0312,0 0.29083,0.12096 0.59072,0.21668 0.90625,0.28125 0.01,0.002 0.0213,-0.002 0.0312,0 0.12299,0.0244 0.24894,0.0473 0.375,0.0625 0.20899,0.0266 0.40877,0.0625 0.625,0.0625 0.17259,0 0.33191,-0.0142 0.5,-0.0312 1.1766,-0.11949 2.23953,-0.64579 3.03125,-1.4375 0.45241,-0.45241 0.80949,-0.99556 1.0625,-1.59375 0.004,-0.008 -0.004,-0.0228 0,-0.0312 0.18347,-0.44098 0.32481,-0.91208 0.375,-1.40625 0.0161,-0.15824 0.0303,-0.33775 0.0312,-0.5 0,-0.0101 6e-5,-0.0212 0,-0.0312 0,-0.17259 -0.0142,-0.33192 -0.0312,-0.5 -0.0512,-0.50427 -0.18524,-0.98885 -0.375,-1.4375 -0.006,-0.0132 -0.0256,-0.0181 -0.0312,-0.0312 -0.13492,-0.31142 -0.27613,-0.60027 -0.46875,-0.875 -0.0149,-0.0229 -0.0472,-0.0399 -0.0625,-0.0625 -0.008,-0.0118 -0.0233,-0.0195 -0.0312,-0.0312 -0.15266,-0.20614 -0.31811,-0.41363 -0.5,-0.59375 -0.006,-0.006 0.006,-0.0254 0,-0.0312 -0.0117,-0.0115 -0.0507,0.0114 -0.0625,0 -0.005,-0.005 0.005,-0.0266 0,-0.0312 -0.02,-0.0208 -0.0422,-0.042 -0.0625,-0.0625 -0.005,-0.004 0.005,-0.0268 0,-0.0312 -0.0246,-0.0257 -0.0686,-0.0374 -0.0937,-0.0625 -0.005,-0.004 0.005,-0.0268 0,-0.0312 -0.0106,-0.0102 -0.0206,-0.0211 -0.0312,-0.0312 -0.0101,-0.0105 -0.021,-0.0208 -0.0312,-0.0312 -0.0103,-0.0101 -0.0209,-0.0212 -0.0312,-0.0312 -0.0101,-0.0105 -0.021,-0.0208 -0.0312,-0.0312 -0.0105,-0.0103 -0.0207,-0.0211 -0.0312,-0.0312 -0.01,-0.0104 -0.0211,-0.0209 -0.0312,-0.0312 -0.0105,-0.0103 -0.0207,-0.0211 -0.0312,-0.0312 -0.026,-0.026 -0.0672,-0.0371 -0.0937,-0.0625 -0.01,-0.0104 -0.0212,-0.0209 -0.0312,-0.0312 -0.0153,-0.0144 -0.0158,-0.0483 -0.0312,-0.0625 -0.0266,-0.0266 -0.0666,-0.0365 -0.0937,-0.0625 -0.0297,-0.0313 -0.0632,-0.0632 -0.0937,-0.0937 -0.0613,-0.0642 -0.12286,-0.12668 -0.1875,-0.1875 -0.0101,-0.0107 -0.021,-0.0206 -0.0312,-0.0312 -0.0106,-0.0104 -0.0206,-0.021 -0.0312,-0.0312 -0.0104,-0.0106 -0.0208,-0.0208 -0.0312,-0.0312 -0.0716,-0.0762 -0.1426,-0.1472 -0.21875,-0.21875 -0.0753,-0.0801 -0.13839,-0.17498 -0.21875,-0.25 -0.0415,-0.0415 -0.082,-0.0849 -0.125,-0.125 -0.0463,-0.0463 -0.10811,-0.0805 -0.15625,-0.125 -0.0445,-0.0481 -0.0787,-0.1099 -0.125,-0.15625 -0.02,-0.0215 -0.0421,-0.0414 -0.0625,-0.0625 -0.0211,-0.0204 -0.041,-0.0425 -0.0625,-0.0625 -0.0306,-0.0306 -0.0624,-0.064 -0.0937,-0.0937 -0.0465,-0.0481 -0.10789,-0.0788 -0.15625,-0.125 -0.0967,-0.1101 -0.20664,-0.21128 -0.3125,-0.3125 -0.0519,-0.0543 -0.10196,-0.10434 -0.15625,-0.15625 -0.0812,-0.085 -0.16299,-0.17092 -0.25,-0.25 -0.0306,-0.0306 -0.0624,-0.064 -0.0937,-0.0937 -0.0298,-0.0314 -0.0632,-0.0632 -0.0937,-0.0937 -0.0844,-0.0931 -0.15885,-0.19477 -0.25,-0.28125 C 129.8975,162.40261 56.140529,88.709174 15.53125,48.03125 14.621021,46.794431 13.153435,46 11.5,46 z m 4.78125,19.75 c -2.52128,0.256052 -4.5,2.411188 -4.5,5 0,1.61315 0.782905,3.023236 1.96875,3.9375 38.586954,38.58695 72.774505,72.80535 110.96615,110.997 0.10373,0.11754 0.19828,0.23644 0.3125,0.34375 0.0312,0.0318 0.0617,0.0628 0.0937,0.0937 0.02,0.0207 0.0421,0.0421 0.0625,0.0625 0.0558,0.0594 0.0976,0.13089 0.15625,0.1875 0.0567,0.0587 0.12803,0.10037 0.1875,0.15625 0.0209,0.0209 0.0412,0.0419 0.0625,0.0625 0.0106,0.0108 0.0206,0.0206 0.0312,0.0312 0.0816,0.0868 0.16246,0.16918 0.25,0.25 0.032,0.0328 0.0609,0.0618 0.0937,0.0937 0.0422,0.0433 0.0813,0.0832 0.125,0.125 0.0621,0.0649 0.12201,0.12597 0.1875,0.1875 0.0101,0.0103 0.0211,0.0211 0.0312,0.0312 0.0107,0.01 0.0204,0.0214 0.0312,0.0312 0.0101,0.0103 0.0211,0.0211 0.0312,0.0312 0.004,0.005 0.027,-0.005 0.0312,0 0.0103,0.009 0.0208,0.0222 0.0312,0.0312 0.005,0.006 -0.006,0.0252 0,0.0312 0.004,0.005 0.0268,-0.005 0.0312,0 0.005,0.006 -0.006,0.0252 0,0.0312 0.0107,0.0105 0.0204,0.0208 0.0312,0.0312 0.0101,0.0103 0.0211,0.0211 0.0312,0.0312 0.0101,0.0106 0.021,0.0207 0.0312,0.0312 0.0101,0.0106 0.021,0.0207 0.0312,0.0312 0.006,0.007 -0.006,0.0248 0,0.0312 0.005,0.005 0.0265,-0.005 0.0312,0 0.006,0.006 -0.006,0.0255 0,0.0312 0.005,0.005 0.0265,-0.005 0.0312,0 0.0105,0.0102 0.0206,0.0211 0.0312,0.0312 0.006,0.006 -0.006,0.0255 0,0.0312 0.005,0.005 0.0264,-0.005 0.0312,0 0.0472,0.0467 0.1072,0.0802 0.15625,0.125 0.10959,0.10114 0.22544,0.19013 0.34375,0.28125 0.0122,0.008 0.0189,0.0229 0.0312,0.0312 0.011,0.008 0.0202,0.0237 0.0312,0.0312 0.0596,0.0442 0.0947,0.11466 0.15625,0.15625 0.007,0.004 0.0247,-0.004 0.0312,0 0.0572,0.0382 0.12866,0.0579 0.1875,0.0937 0.4881,0.30086 1.0134,0.53749 1.59375,0.65625 0.1327,0.0272 0.26995,0.0461 0.40625,0.0625 0.0309,0.004 0.0627,-0.003 0.0937,0 0.16809,0.0171 0.32741,0.0312 0.5,0.0312 0.17259,0 0.33191,-0.0142 0.5,-0.0312 0.16809,-0.0171 0.33726,-0.0292 0.5,-0.0625 0.64194,-0.13136 1.25464,-0.3983 1.78125,-0.75 0.532,-0.35941 1.01559,-0.843 1.375,-1.375 0.35169,-0.52661 0.61864,-1.13931 0.75,-1.78125 0.0666,-0.32549 0.0937,-0.65481 0.0937,-1 0,-0.18321 -0.012,-0.35314 -0.0312,-0.53125 -0.002,-0.0203 0.002,-0.0423 0,-0.0625 -0.0164,-0.1363 -0.0353,-0.27355 -0.0625,-0.40625 -0.0676,-0.33061 -0.1831,-0.63418 -0.3125,-0.9375 -0.004,-0.009 0.004,-0.0227 0,-0.0312 -0.0953,-0.22006 -0.21906,-0.4227 -0.34375,-0.625 -0.0359,-0.0588 -0.0556,-0.13029 -0.0937,-0.1875 -0.004,-0.007 0.004,-0.0247 0,-0.0312 -0.0416,-0.0616 -0.11203,-0.0967 -0.15625,-0.15625 -0.008,-0.0121 -0.0227,-0.0192 -0.0312,-0.0312 -0.008,-0.0123 -0.0228,-0.019 -0.0312,-0.0312 -0.0911,-0.11831 -0.18011,-0.23416 -0.28125,-0.34375 -0.0151,-0.0164 -0.0159,-0.0463 -0.0312,-0.0625 -0.0306,-0.0322 -0.0623,-0.0623 -0.0937,-0.0937 -0.0119,-0.012 -0.0193,-0.0194 -0.0312,-0.0312 -0.0102,-0.0102 -0.021,-0.0211 -0.0312,-0.0312 -0.006,-0.006 0.006,-0.0252 0,-0.0312 -0.0165,-0.0159 -0.0458,-0.0156 -0.0625,-0.0312 -0.01,-0.01 -0.0214,-0.0217 -0.0312,-0.0312 -0.006,-0.006 -0.0252,0.006 -0.0312,0 -0.005,-0.004 0.005,-0.0268 0,-0.0312 -0.0104,-0.0109 -0.0208,-0.0204 -0.0312,-0.0312 -0.0103,-0.0101 -0.0209,-0.0212 -0.0312,-0.0312 -0.006,-0.005 -0.0251,0.005 -0.0312,0 -0.005,-0.005 0.005,-0.0266 0,-0.0312 -0.006,-0.005 -0.0251,0.005 -0.0312,0 -0.009,-0.0105 -0.0217,-0.0208 -0.0312,-0.0312 -0.005,-0.004 0.005,-0.027 0,-0.0312 -0.0102,-0.011 -0.0209,-0.0204 -0.0312,-0.0312 -0.0103,-0.0101 -0.0209,-0.0212 -0.0312,-0.0312 -0.0105,-0.0109 -0.0207,-0.0205 -0.0312,-0.0312 -0.0103,-0.0101 -0.0209,-0.0212 -0.0312,-0.0312 -0.0519,-0.0543 -0.10194,-0.10432 -0.15625,-0.15625 -0.0197,-0.0208 -0.0424,-0.0421 -0.0625,-0.0625 -0.0104,-0.01 -0.0208,-0.0213 -0.0312,-0.0312 -0.0418,-0.0437 -0.0817,-0.0828 -0.125,-0.125 -0.0106,-0.0108 -0.0206,-0.0206 -0.0312,-0.0312 -0.0716,-0.0762 -0.1426,-0.1472 -0.21875,-0.21875 -0.0102,-0.0107 -0.021,-0.0206 -0.0312,-0.0312 -0.0215,-0.0212 -0.0406,-0.0417 -0.0625,-0.0625 -0.0196,-0.021 -0.0425,-0.0418 -0.0625,-0.0625 -0.0207,-0.02 -0.0414,-0.0428 -0.0625,-0.0625 -0.0149,-0.0157 -0.0474,-0.0157 -0.0625,-0.0312 -0.0157,-0.0153 -0.0153,-0.0474 -0.0312,-0.0625 -0.0205,-0.0221 -0.0416,-0.0408 -0.0625,-0.0625 -0.0207,-0.02 -0.0414,-0.0428 -0.0625,-0.0625 -0.0205,-0.0221 -0.0416,-0.0408 -0.0625,-0.0625 -0.0207,-0.02 -0.0414,-0.0428 -0.0625,-0.0625 -0.0908,-0.0983 -0.18294,-0.19049 -0.28125,-0.28125 -0.025,-0.0269 -0.0681,-0.0361 -0.0937,-0.0625 -0.006,-0.006 0.006,-0.0253 0,-0.0312 -0.0111,-0.01 -0.0201,-0.0217 -0.0312,-0.0312 -0.051,-0.051 -0.10311,-0.10749 -0.15625,-0.15625 -0.0306,-0.0306 -0.0624,-0.064 -0.0937,-0.0937 -0.0714,-0.0739 -0.14292,-0.14933 -0.21875,-0.21875 -0.0292,-0.0319 -0.0637,-0.0626 -0.0937,-0.0937 -0.0215,-0.0204 -0.0406,-0.0425 -0.0625,-0.0625 -0.051,-0.051 -0.10311,-0.10749 -0.15625,-0.15625 -0.0306,-0.0306 -0.0624,-0.064 -0.0937,-0.0937 C 85.532226,132.40698 57.647277,104.58478 20.75,67.6875 19.835741,66.501652 18.394413,65.75 16.78125,65.75 c -0.172589,0 -0.331915,-0.01707 -0.5,0 z"
       id="path30973"
       inkscape:connector-curvature="0"
       sodipodi:nodetypes="sscccccccccccccccccccccccccccccccccccccccccccccccccccccccccccccccccccccccccccccscscccccccccccccccccccccccccccccccccccccccccccccccccccccccccccccccccccccccccccccccccccccccccccccccccccccccccccccccccsssccccccsscccccccccccccccccccccccccccccccccccccccccccccccccccccccccccccssccccccscccccccccccccccccccccccccccccccccccccccccccccccccscsccscscccccccccccccccccccccccccccccccccccccccccccccccccccccccccccccccccccccccccccccsssccccccccccccccccccccccccccccccccccccccccccccccccccccccccccccccccccccscscccsccccccccccccccccccccccccccccccccccccccccccccccccccccccccccccccccccccccccccccccccccccccccccccsssccccccccccccccccccccccccccccccccccccccccccccccccccccccccccccccccccccccccccccccccccccccccccccccscscccccccccccccccccccccccccccccccccccccccccccccccccccsssccccccccccccccccccccccccccccccccccccccccccscscccsccccccccccccccccccccccccccccccccccccccccccccccccccccccccccccss"
       clip-path="url(#clipPath89472)" />
  </g>
  <g
     inkscape:label="Connections Glow"
     id="g5279"
     inkscape:groupmode="layer"
     style="display:inline">
    <path
       style="fill:none;stroke:#ffffff;stroke-width:0.5;stroke-linecap:butt;stroke-linejoin:miter;stroke-miterlimit:4;stroke-opacity:1;stroke-dasharray:none;display:inline;filter:url(#filter24554)"
       d="M 49.999998,10.509584 69.742106,84.195954 15.804062,30.257884 89.490416,49.999994 15.804062,69.742054 69.742106,15.804064 49.999998,89.490454 30.257889,15.804064 84.195934,69.742054 10.50958,49.999994 84.195934,30.257884 30.257889,84.195954 z"
       id="path24455"
       inkscape:connector-curvature="0" />
    <path
       style="fill:none;stroke:#ffffff;stroke-width:0.5;stroke-linecap:butt;stroke-linejoin:miter;stroke-miterlimit:4;stroke-opacity:1;stroke-dasharray:none;display:inline;filter:url(#filter24558)"
       d="M 49.999998,10.509584 89.490416,49.999994 49.999998,89.490454 10.50958,49.999994 z"
       id="path24457"
       inkscape:connector-curvature="0" />
    <path
       style="fill:none;stroke:#ffffff;stroke-width:0.5;stroke-linecap:butt;stroke-linejoin:miter;stroke-miterlimit:4;stroke-opacity:1;stroke-dasharray:none;display:inline;filter:url(#filter24562)"
       d="m 49.999998,10.509584 34.195936,59.23247 -68.391872,0 z"
       id="path24459"
       inkscape:connector-curvature="0" />
    <path
       style="fill:none;stroke:#ffffff;stroke-width:0.5;stroke-linecap:butt;stroke-linejoin:miter;stroke-miterlimit:4;stroke-opacity:1;stroke-dasharray:none;display:inline;filter:url(#filter24566)"
       d="m 69.742106,15.804064 14.453828,53.93799 -53.938045,14.4539 -14.453827,-53.93807 z"
       id="path24461"
       inkscape:connector-curvature="0" />
    <path
       style="fill:none;stroke:#ffffff;stroke-width:0.5;stroke-linecap:butt;stroke-linejoin:miter;stroke-miterlimit:4;stroke-opacity:1;stroke-dasharray:none;display:inline;filter:url(#filter24570)"
       d="M 84.195934,30.257884 69.742106,84.195954 15.804062,69.742054 30.257889,15.804064 z"
       id="path24463"
       inkscape:connector-curvature="0" />
    <path
       style="fill:none;stroke:#ffffff;stroke-width:0.5;stroke-linecap:butt;stroke-linejoin:miter;stroke-miterlimit:4;stroke-opacity:1;stroke-dasharray:none;display:inline;filter:url(#filter24574)"
       d="m 69.742106,15.804064 0,68.39189 -59.232526,-34.19596 z"
       id="path24465"
       inkscape:connector-curvature="0" />
    <path
       style="fill:none;stroke:#ffffff;stroke-width:0.5;stroke-linecap:butt;stroke-linejoin:miter;stroke-miterlimit:4;stroke-opacity:1;stroke-dasharray:none;display:inline;filter:url(#filter24578)"
       d="M 84.195934,30.257884 49.999998,89.490454 15.804062,30.257884 z"
       id="path24467"
       inkscape:connector-curvature="0" />
    <path
       style="fill:none;stroke:#ffffff;stroke-width:0.5;stroke-linecap:butt;stroke-linejoin:miter;stroke-miterlimit:4;stroke-opacity:1;stroke-dasharray:none;display:inline;filter:url(#filter24582)"
       d="m 89.490416,49.999994 -59.232527,34.19596 0,-68.39189 z"
       id="path24469"
       inkscape:connector-curvature="0" />
    <path
       style="fill:none;stroke:#ffffff;stroke-width:0.5;stroke-linecap:butt;stroke-linejoin:miter;stroke-miterlimit:4;stroke-opacity:1;stroke-dasharray:none;display:inline;filter:url(#filter24586)"
       d="m 49.999998,10.509584 19.742108,5.29448 14.453828,14.45382 5.294482,19.74211 -5.294482,19.74206 -14.453828,14.4539 -19.742108,5.2945 -19.742109,-5.2945 -14.453827,-14.4539 -5.294482,-19.74206 5.294482,-19.74211 14.453827,-14.45382 z"
       id="path24471"
       inkscape:connector-curvature="0" />
  </g>
  <g
     style="display:inline"
     inkscape:groupmode="layer"
     id="layer3"
     inkscape:label="Connections">
    <path
       inkscape:connector-curvature="0"
       id="path24444"
       d="M 49.999998,10.509584 69.742106,84.195954 15.804062,30.257884 89.490416,49.999994 15.804062,69.742054 69.742106,15.804064 49.999998,89.490454 30.257889,15.804064 84.195934,69.742054 10.50958,49.999994 84.195934,30.257884 30.257889,84.195954 z"
       style="opacity:0.9;fill:none;stroke:#ffffff;stroke-width:0.5;stroke-linecap:butt;stroke-linejoin:miter;stroke-miterlimit:4;stroke-opacity:1;stroke-dasharray:none;display:inline" />
    <path
       inkscape:connector-curvature="0"
       id="path24430"
       d="M 49.999998,10.509584 89.490416,49.999994 49.999998,89.490454 10.50958,49.999994 z"
       style="opacity:0.9;fill:none;stroke:#ffffff;stroke-width:0.5;stroke-linecap:butt;stroke-linejoin:miter;stroke-miterlimit:4;stroke-opacity:1;stroke-dasharray:none;display:inline" />
    <path
       inkscape:connector-curvature="0"
       id="path24436"
       d="m 49.999998,10.509584 34.195936,59.23247 -68.391872,0 z"
       style="opacity:0.9;fill:none;stroke:#ffffff;stroke-width:0.5;stroke-linecap:butt;stroke-linejoin:miter;stroke-miterlimit:4;stroke-opacity:1;stroke-dasharray:none;display:inline" />
    <path
       inkscape:connector-curvature="0"
       id="path24432"
       d="m 69.742106,15.804064 14.453828,53.93799 -53.938045,14.4539 -14.453827,-53.93807 z"
       style="opacity:0.9;fill:none;stroke:#ffffff;stroke-width:0.5;stroke-linecap:butt;stroke-linejoin:miter;stroke-miterlimit:4;stroke-opacity:1;stroke-dasharray:none;display:inline" />
    <path
       inkscape:connector-curvature="0"
       id="path24434"
       d="M 84.195934,30.257884 69.742106,84.195954 15.804062,69.742054 30.257889,15.804064 z"
       style="opacity:0.9;fill:none;stroke:#ffffff;stroke-width:0.5;stroke-linecap:butt;stroke-linejoin:miter;stroke-miterlimit:4;stroke-opacity:1;stroke-dasharray:none;display:inline" />
    <path
       inkscape:connector-curvature="0"
       id="path24438"
       d="m 69.742106,15.804064 0,68.39189 -59.232526,-34.19596 z"
       style="opacity:0.9;fill:none;stroke:#ffffff;stroke-width:0.5;stroke-linecap:butt;stroke-linejoin:miter;stroke-miterlimit:4;stroke-opacity:1;stroke-dasharray:none;display:inline" />
    <path
       inkscape:connector-curvature="0"
       id="path24440"
       d="M 84.195934,30.257884 49.999998,89.490454 15.804062,30.257884 z"
       style="opacity:0.9;fill:none;stroke:#ffffff;stroke-width:0.5;stroke-linecap:butt;stroke-linejoin:miter;stroke-miterlimit:4;stroke-opacity:1;stroke-dasharray:none;display:inline" />
    <path
       inkscape:connector-curvature="0"
       id="path24442"
       d="m 89.490416,49.999994 -59.232527,34.19596 0,-68.39189 z"
       style="opacity:0.9;fill:none;stroke:#ffffff;stroke-width:0.5;stroke-linecap:butt;stroke-linejoin:miter;stroke-miterlimit:4;stroke-opacity:1;stroke-dasharray:none;display:inline" />
    <path
       inkscape:connector-curvature="0"
       id="path24428"
       d="m 49.999998,10.509584 19.742108,5.29448 14.453828,14.45382 5.294482,19.74211 -5.294482,19.74206 -14.453828,14.4539 -19.742108,5.2945 -19.742109,-5.2945 -14.453827,-14.4539 -5.294482,-19.74206 5.294482,-19.74211 14.453827,-14.45382 z"
       style="opacity:0.9;fill:none;stroke:#ffffff;stroke-width:0.5;stroke-linecap:butt;stroke-linejoin:miter;stroke-miterlimit:4;stroke-opacity:1;stroke-dasharray:none;display:inline" />
  </g>
  <g
     style="display:inline"
     transform="translate(0,-952.36218)"
     id="layer1"
     inkscape:groupmode="layer"
     inkscape:label="Items">
    <path
       sodipodi:type="arc"
       style="fill:#ffffff;fill-opacity:1;fill-rule:nonzero;stroke:#000000;stroke-opacity:1;stroke-width:0;stroke-miterlimit:4;stroke-dasharray:none"
       id="path6401-6"
       sodipodi:cx="52.857143"
       sodipodi:cy="48.607143"
       sodipodi:rx="35.714287"
       sodipodi:ry="29.464285"
       d="M 88.57143,48.607143 A 35.714287,29.464285 0 0 1 52.857143,78.071428 35.714287,29.464285 0 0 1 17.142857,48.607143 35.714287,29.464285 0 0 1 52.857143,19.142859 35.714287,29.464285 0 0 1 88.57143,48.607143 Z"
       transform="matrix(0.20999999,0,0,0.25454037,38.900002,989.9897)" />
    <circle
       id="path4445"
       style="fill:#ffffff;fill-opacity:1;stroke:#000000;stroke-opacity:1;stroke-width:0;stroke-miterlimit:4;stroke-dasharray:none"
       transform="matrix(1.044345,0,0,1.044345,76.234606,986.88114)"
       d="m 17.48063,14.823678 a 4.7876887,4.7876887 0 0 1 -4.787688,4.787689 4.7876887,4.7876887 0 0 1 -4.7876891,-4.787689 4.7876887,4.7876887 0 0 1 4.7876891,-4.787689 4.7876887,4.7876887 0 0 1 4.787688,4.787689 z"
       sodipodi:type="arc"
       sodipodi:ry="4.7876887"
       sodipodi:rx="4.7876887"
       sodipodi:cy="14.823678"
       sodipodi:cx="12.692942" />
    <path
       transform="matrix(1.044345,0,0,1.044345,70.940124,1006.6232)"
       d="m 17.48063,14.823678 a 4.7876887,4.7876887 0 0 1 -4.787688,4.787689 4.7876887,4.7876887 0 0 1 -4.7876891,-4.787689 4.7876887,4.7876887 0 0 1 4.7876891,-4.787689 4.7876887,4.7876887 0 0 1 4.787688,4.787689 z"
       sodipodi:ry="4.7876887"
       sodipodi:rx="4.7876887"
       sodipodi:cy="14.823678"
       sodipodi:cx="12.692942"
       id="path8879"
       style="fill:#ffffff;fill-opacity:1;stroke:#000000;stroke-opacity:1;stroke-width:0;stroke-miterlimit:4;stroke-dasharray:none"
       sodipodi:type="arc" />
    <path
       transform="matrix(1.044345,0,0,1.044345,56.486296,1021.0771)"
       d="m 17.48063,14.823678 a 4.7876887,4.7876887 0 0 1 -4.787688,4.787689 4.7876887,4.7876887 0 0 1 -4.7876891,-4.787689 4.7876887,4.7876887 0 0 1 4.7876891,-4.787689 4.7876887,4.7876887 0 0 1 4.787688,4.787689 z"
       sodipodi:ry="4.7876887"
       sodipodi:rx="4.7876887"
       sodipodi:cy="14.823678"
       sodipodi:cx="12.692942"
       id="path0060"
       style="fill:#ffffff;fill-opacity:1;stroke:#000000;stroke-opacity:1;stroke-width:0;stroke-miterlimit:4;stroke-dasharray:none"
       sodipodi:type="arc" />
    <path
       transform="matrix(1.044345,0,0,1.044345,36.744188,1026.3716)"
       d="m 17.48063,14.823678 a 4.7876887,4.7876887 0 0 1 -4.787688,4.787689 4.7876887,4.7876887 0 0 1 -4.7876891,-4.787689 4.7876887,4.7876887 0 0 1 4.7876891,-4.787689 4.7876887,4.7876887 0 0 1 4.787688,4.787689 z"
       sodipodi:ry="4.7876887"
       sodipodi:rx="4.7876887"
       sodipodi:cy="14.823678"
       sodipodi:cx="12.692942"
       id="path3215"
       style="fill:#ffffff;fill-opacity:1;stroke:#000000;stroke-opacity:1;stroke-width:0;stroke-miterlimit:4;stroke-dasharray:none"
       sodipodi:type="arc" />
    <path
       transform="matrix(1.044345,0,0,1.044345,17.002079,1021.0771)"
       d="m 17.48063,14.823678 a 4.7876887,4.7876887 0 0 1 -4.787688,4.787689 4.7876887,4.7876887 0 0 1 -4.7876891,-4.787689 4.7876887,4.7876887 0 0 1 4.7876891,-4.787689 4.7876887,4.7876887 0 0 1 4.787688,4.787689 z"
       sodipodi:ry="4.7876887"
       sodipodi:rx="4.7876887"
       sodipodi:cy="14.823678"
       sodipodi:cx="12.692942"
       id="path3605"
       style="fill:#ffffff;fill-opacity:1;stroke:#000000;stroke-opacity:1;stroke-width:0;stroke-miterlimit:4;stroke-dasharray:none"
       sodipodi:type="arc" />
    <path
       transform="matrix(1.044345,0,0,1.044345,2.548252,1006.6232)"
       d="m 17.48063,14.823678 a 4.7876887,4.7876887 0 0 1 -4.787688,4.787689 4.7876887,4.7876887 0 0 1 -4.7876891,-4.787689 4.7876887,4.7876887 0 0 1 4.7876891,-4.787689 4.7876887,4.7876887 0 0 1 4.787688,4.787689 z"
       sodipodi:ry="4.7876887"
       sodipodi:rx="4.7876887"
       sodipodi:cy="14.823678"
       sodipodi:cx="12.692942"
       id="path8993"
       style="fill:#ffffff;fill-opacity:1;stroke:#000000;stroke-opacity:1;stroke-width:0;stroke-miterlimit:4;stroke-dasharray:none"
       sodipodi:type="arc" />
    <path
       transform="matrix(1.044345,0,0,1.044345,-2.74623,986.88114)"
       d="m 17.48063,14.823678 a 4.7876887,4.7876887 0 0 1 -4.787688,4.787689 4.7876887,4.7876887 0 0 1 -4.7876891,-4.787689 4.7876887,4.7876887 0 0 1 4.7876891,-4.787689 4.7876887,4.7876887 0 0 1 4.787688,4.787689 z"
       sodipodi:ry="4.7876887"
       sodipodi:rx="4.7876887"
       sodipodi:cy="14.823678"
       sodipodi:cx="12.692942"
       id="path0024"
       style="fill:#ffffff;fill-opacity:1;stroke:#000000;stroke-opacity:1;stroke-width:0;stroke-miterlimit:4;stroke-dasharray:none"
       sodipodi:type="arc" />
    <path
       transform="matrix(1.044345,0,0,1.044345,2.548252,967.13903)"
       d="m 17.48063,14.823678 a 4.7876887,4.7876887 0 0 1 -4.787688,4.787689 4.7876887,4.7876887 0 0 1 -4.7876891,-4.787689 4.7876887,4.7876887 0 0 1 4.7876891,-4.787689 4.7876887,4.7876887 0 0 1 4.787688,4.787689 z"
       sodipodi:ry="4.7876887"
       sodipodi:rx="4.7876887"
       sodipodi:cy="14.823678"
       sodipodi:cx="12.692942"
       id="path1604"
       style="fill:#ffffff;fill-opacity:1;stroke:#000000;stroke-opacity:1;stroke-width:0;stroke-miterlimit:4;stroke-dasharray:none"
       sodipodi:type="arc" />
    <path
       transform="matrix(1.044345,0,0,1.044345,17.002079,952.68521)"
       d="m 17.48063,14.823678 a 4.7876887,4.7876887 0 0 1 -4.787688,4.787689 4.7876887,4.7876887 0 0 1 -4.7876891,-4.787689 4.7876887,4.7876887 0 0 1 4.7876891,-4.787689 4.7876887,4.7876887 0 0 1 4.787688,4.787689 z"
       sodipodi:ry="4.7876887"
       sodipodi:rx="4.7876887"
       sodipodi:cy="14.823678"
       sodipodi:cx="12.692942"
       id="path9504"
       style="fill:#ffffff;fill-opacity:1;stroke:#000000;stroke-opacity:1;stroke-width:0;stroke-miterlimit:4;stroke-dasharray:none"
       sodipodi:type="arc" />
    <path
       transform="matrix(1.044345,0,0,1.044345,36.744188,947.39073)"
       d="m 17.48063,14.823678 a 4.7876887,4.7876887 0 0 1 -4.787688,4.787689 4.7876887,4.7876887 0 0 1 -4.7876891,-4.787689 4.7876887,4.7876887 0 0 1 4.7876891,-4.787689 4.7876887,4.7876887 0 0 1 4.787688,4.787689 z"
       sodipodi:ry="4.7876887"
       sodipodi:rx="4.7876887"
       sodipodi:cy="14.823678"
       sodipodi:cx="12.692942"
       id="path1619"
       style="fill:#ffffff;fill-opacity:1;stroke:#000000;stroke-opacity:1;stroke-width:0;stroke-miterlimit:4;stroke-dasharray:none"
       sodipodi:type="arc" />
    <path
       transform="matrix(1.044345,0,0,1.044345,56.486296,952.68521)"
       d="m 17.48063,14.823678 a 4.7876887,4.7876887 0 0 1 -4.787688,4.787689 4.7876887,4.7876887 0 0 1 -4.7876891,-4.787689 4.7876887,4.7876887 0 0 1 4.7876891,-4.787689 4.7876887,4.7876887 0 0 1 4.787688,4.787689 z"
       sodipodi:ry="4.7876887"
       sodipodi:rx="4.7876887"
       sodipodi:cy="14.823678"
       sodipodi:cx="12.692942"
       id="path8645"
       style="fill:#ffffff;fill-opacity:1;stroke:#000000;stroke-opacity:1;stroke-width:0;stroke-miterlimit:4;stroke-dasharray:none"
       sodipodi:type="arc" />
    <path
       transform="matrix(1.044345,0,0,1.044345,70.940124,967.13903)"
       d="m 17.48063,14.823678 a 4.7876887,4.7876887 0 0 1 -4.787688,4.787689 4.7876887,4.7876887 0 0 1 -4.7876891,-4.787689 4.7876887,4.7876887 0 0 1 4.7876891,-4.787689 4.7876887,4.7876887 0 0 1 4.787688,4.787689 z"
       sodipodi:ry="4.7876887"
       sodipodi:rx="4.7876887"
       sodipodi:cy="14.823678"
       sodipodi:cx="12.692942"
       id="path8012"
       style="fill:#ffffff;fill-opacity:1;stroke:#000000;stroke-opacity:1;stroke-width:0;stroke-miterlimit:4;stroke-dasharray:none"
       sodipodi:type="arc" />
  </g>
</svg>
